<?xml version="1.0" encoding="UTF-8" standalone="no"?>
<!-- Created with Inkscape (http://www.inkscape.org/) -->

<svg
   xmlns:osb="http://www.openswatchbook.org/uri/2009/osb"
   xmlns:dc="http://purl.org/dc/elements/1.1/"
   xmlns:cc="http://creativecommons.org/ns#"
   xmlns:rdf="http://www.w3.org/1999/02/22-rdf-syntax-ns#"
   xmlns:svg="http://www.w3.org/2000/svg"
   xmlns="http://www.w3.org/2000/svg"
   xmlns:sodipodi="http://sodipodi.sourceforge.net/DTD/sodipodi-0.dtd"
   xmlns:inkscape="http://www.inkscape.org/namespaces/inkscape"
   width="2560"
   height="2560"
   viewBox="0 0 2560 2560"
   version="1.1"
   id="svg8"
   inkscape:version="0.92.4 5da689c313, 2019-01-14"
   sodipodi:docname="w18-1.svg"
   inkscape:export-filename="/home/jakub/Documents/notatki-analiza-III/w/img/w18-1.png"
   inkscape:export-xdpi="96"
   inkscape:export-ydpi="96">
  <defs
     id="defs2">
    <marker
       inkscape:stockid="Arrow1Mend"
       orient="auto"
       refY="0.0"
       refX="0.0"
       id="Arrow1Mend"
       style="overflow:visible;"
       inkscape:isstock="true">
      <path
         id="path884"
         d="M 0.0,0.0 L 5.0,-5.0 L -12.5,0.0 L 5.0,5.0 L 0.0,0.0 z "
         style="fill-rule:evenodd;stroke:#df0000;stroke-width:1pt;stroke-opacity:1;fill:#df0000;fill-opacity:1"
         transform="scale(0.4) rotate(180) translate(10,0)" />
    </marker>
    <inkscape:path-effect
       effect="bspline"
       id="path-effect25"
       is_visible="true"
       weight="33.333333"
       steps="2"
       helper_size="0"
       apply_no_weight="true"
       apply_with_weight="true"
       only_selected="false" />
    <linearGradient
       id="linearGradient8746"
       osb:paint="solid">
      <stop
         style="stop-color:#9148ff;stop-opacity:1;"
         offset="0"
         id="stop8744" />
    </linearGradient>
    <marker
       inkscape:isstock="true"
       style="overflow:visible"
       id="marker1878"
       refX="0"
       refY="0"
       orient="auto"
       inkscape:stockid="Arrow1Lend">
      <path
         transform="matrix(-0.8,0,0,-0.8,-10,0)"
         style="fill:#000000;fill-opacity:1;fill-rule:evenodd;stroke:#000000;stroke-width:1.00000003pt;stroke-opacity:1"
         d="M 0,0 5,-5 -12.5,0 5,5 Z"
         id="path1876"
         inkscape:connector-curvature="0" />
    </marker>
    <inkscape:path-effect
       effect="bspline"
       id="path-effect1866"
       is_visible="true"
       weight="33.333333"
       steps="2"
       helper_size="0"
       apply_no_weight="true"
       apply_with_weight="true"
       only_selected="false" />
    <marker
       inkscape:stockid="Arrow1Lstart"
       orient="auto"
       refY="0"
       refX="0"
       id="Arrow1Lstart"
       style="overflow:visible"
       inkscape:isstock="true">
      <path
         id="path1405"
         d="M 0,0 5,-5 -12.5,0 5,5 Z"
         style="fill:#000000;fill-opacity:1;fill-rule:evenodd;stroke:#000000;stroke-width:1.00000003pt;stroke-opacity:1"
         transform="matrix(0.8,0,0,0.8,10,0)"
         inkscape:connector-curvature="0" />
    </marker>
    <marker
       inkscape:stockid="Arrow1Lend"
       orient="auto"
       refY="0"
       refX="0"
       id="marker3200"
       style="overflow:visible"
       inkscape:isstock="true">
      <path
         inkscape:connector-curvature="0"
         id="path3198"
         d="M 0,0 5,-5 -12.5,0 5,5 Z"
         style="fill:#000000;fill-opacity:1;fill-rule:evenodd;stroke:#000000;stroke-width:1.00000003pt;stroke-opacity:1"
         transform="matrix(-0.8,0,0,-0.8,-10,0)" />
    </marker>
    <marker
       inkscape:stockid="Arrow1Lstart"
       orient="auto"
       refY="0"
       refX="0"
       id="Arrow1Lstart-9"
       style="overflow:visible"
       inkscape:isstock="true">
      <path
         inkscape:connector-curvature="0"
         id="path1405-2"
         d="M 0,0 5,-5 -12.5,0 5,5 Z"
         style="fill:#000000;fill-opacity:1;fill-rule:evenodd;stroke:#000000;stroke-width:1.00000003pt;stroke-opacity:1"
         transform="matrix(0.8,0,0,0.8,10,0)" />
    </marker>
    <inkscape:path-effect
       effect="bspline"
       id="path-effect1918"
       is_visible="true"
       weight="33.333333"
       steps="2"
       helper_size="0"
       apply_no_weight="true"
       apply_with_weight="true"
       only_selected="false" />
    <inkscape:path-effect
       effect="bspline"
       id="path-effect1922"
       is_visible="true"
       weight="33.333333"
       steps="2"
       helper_size="0"
       apply_no_weight="true"
       apply_with_weight="true"
       only_selected="false" />
    <inkscape:path-effect
       effect="bspline"
       id="path-effect1926"
       is_visible="true"
       weight="33.333333"
       steps="2"
       helper_size="0"
       apply_no_weight="true"
       apply_with_weight="true"
       only_selected="false" />
    <inkscape:path-effect
       effect="bspline"
       id="path-effect1930"
       is_visible="true"
       weight="33.333333"
       steps="2"
       helper_size="0"
       apply_no_weight="true"
       apply_with_weight="true"
       only_selected="false" />
    <marker
       inkscape:stockid="Arrow1Mend"
       orient="auto"
       refY="0"
       refX="0"
       id="Arrow1Mend-3"
       style="overflow:visible"
       inkscape:isstock="true">
      <path
         inkscape:connector-curvature="0"
         id="path884-6"
         d="M 0,0 5,-5 -12.5,0 5,5 Z"
         style="fill:#df0000;fill-opacity:1;fill-rule:evenodd;stroke:#df0000;stroke-width:1.00000003pt;stroke-opacity:1"
         transform="matrix(-0.4,0,0,-0.4,-4,0)" />
    </marker>
  </defs>
  <sodipodi:namedview
     id="base"
     pagecolor="#ffffff"
     bordercolor="#666666"
     borderopacity="1.0"
     inkscape:pageopacity="0"
     inkscape:pageshadow="2"
     inkscape:zoom="0.834386"
     inkscape:cx="3008.9517"
     inkscape:cy="1184.1845"
     inkscape:document-units="px"
     inkscape:current-layer="layer1"
     showgrid="true"
     showguides="true"
     showborder="false"
     borderlayer="true"
     inkscape:showpageshadow="false"
     inkscape:pagecheckerboard="false"
     objecttolerance="10"
     inkscape:snap-path-clip="true"
     inkscape:snap-path-mask="true"
     gridtolerance="10"
     units="px">
    <inkscape:grid
       type="xygrid"
       id="grid10"
       enabled="false" />
  </sodipodi:namedview>
  <metadata
     id="metadata5">
    <rdf:RDF>
      <cc:Work
         rdf:about="">
        <dc:format>image/svg+xml</dc:format>
        <dc:type
           rdf:resource="http://purl.org/dc/dcmitype/StillImage" />
        <dc:title></dc:title>
      </cc:Work>
    </rdf:RDF>
  </metadata>
  <g
     inkscape:label="Layer 1"
     inkscape:groupmode="layer"
     id="layer1"
     transform="translate(0,380.33333)">
    <circle
       id="path859"
       style="fill:#000000;stroke:none"
       cx="3678.7539"
       cy="880.6994"
       r="5.1023617" />
    <path
       style="opacity:1;vector-effect:none;fill:none;fill-opacity:1;stroke:#df0000;stroke-width:3.40199995;stroke-linecap:butt;stroke-linejoin:miter;stroke-miterlimit:4;stroke-dasharray:none;stroke-dashoffset:0;stroke-opacity:1;marker-end:url(#Arrow1Mend)"
       d="m 3678.5951,880.95641 -201.2314,-53.9198"
       id="path861"
       inkscape:connector-curvature="0" />
    <g
       id="g1247"
       transform="matrix(0.18362873,0,0,0.18362873,2986.0999,712.45011)"
       style="fill:#cc0000;fill-opacity:1">
      <g
         word-spacing="normal"
         letter-spacing="normal"
         font-size-adjust="none"
         font-stretch="normal"
         font-weight="normal"
         font-variant="normal"
         font-style="normal"
         stroke-miterlimit="10.433"
         xml:space="preserve"
         transform="matrix(3.6571429,0,0,-3.6571429,-640,1920)"
         id="content"
         style="font-style:normal;font-variant:normal;font-weight:normal;font-stretch:normal;letter-spacing:normal;word-spacing:normal;text-anchor:start;fill:#cc0000;fill-opacity:1;fill-rule:evenodd;stroke:#000000;stroke-linecap:butt;stroke-linejoin:miter;stroke-miterlimit:10.43299961;stroke-dasharray:none;stroke-dashoffset:0;stroke-opacity:1"><path
           id="path1206"
           d="m 1015.8,350.58 0.3,0.27 0.2,0.26 0.2,0.24 0.3,0.24 0.2,0.23 0.2,0.23 0.2,0.21 0.2,0.21 0.2,0.2 0.2,0.2 0.2,0.19 0.2,0.18 0.2,0.18 0.2,0.17 0.3,0.33 0.4,0.32 0.3,0.3 0.3,0.3 0.4,0.28 0.6,0.56 0.3,0.29 0.4,0.28 c 0,0.05 3,2.69 4.8,4.49 4.8,4.64 5.9,7.03 5.9,7.22 0,0.5 -0.5,0.5 -0.6,0.5 -0.3,0 -0.5,-0.1 -0.7,-0.55 -1.5,-2.39 -2.6,-3.19 -3.8,-3.19 -1.2,0 -1.8,0.75 -2.5,1.6 -0.9,1.15 -1.8,2.14 -3.4,2.14 -3.8,0 -6.1,-4.63 -6.1,-5.67 0,-0.25 0.2,-0.55 0.6,-0.55 0.5,0 0.6,0.25 0.7,0.55 0.9,2.29 3.8,2.34 4.2,2.34 1.1,0 2,-0.36 3.1,-0.75 2,-0.75 2.6,-0.75 3.9,-0.75 -1.8,-2.14 -6,-5.74 -6.9,-6.53 l -4.5,-4.17 c -3.4,-3.35 -5.2,-6.19 -5.2,-6.54 0,-0.5 0.5,-0.5 0.6,-0.5 0.4,0 0.5,0.1 0.8,0.65 1.2,1.75 2.7,3.09 4.3,3.09 1.1,0 1.6,-0.45 2.9,-1.89 0.8,-1.05 1.7,-1.85 3.1,-1.85 5,0 7.9,6.33 7.9,7.68 0,0.25 -0.2,0.5 -0.6,0.5 -0.5,0 -0.6,-0.3 -0.7,-0.66 -1.2,-3.23 -4.4,-4.17 -6,-4.17 -1,0 -1.9,0.3 -2.9,0.64 -1.7,0.64 -2.5,0.84 -3.5,0.84 -0.1,0 -0.9,0 -1.4,-0.14 z"
           inkscape:connector-curvature="0"
           style="fill:#cc0000;fill-opacity:1;stroke-width:0" /><path
           id="path1208"
           d="m 1051,334.49 v 0.02 0.03 0.01 0.02 0.01 0.02 0.02 0.01 0.02 0.02 l -0.1,0.03 v 0.02 0.02 0.03 0.03 0.03 l -0.1,0.04 v 0.03 0.02 0.02 l -0.1,0.02 v 0.02 0.02 0.03 0.02 l -0.1,0.02 v 0.03 0.03 0.02 l -0.1,0.03 v 0.03 0.03 0.03 l -0.1,0.03 v 0.03 0.03 l -0.1,0.04 v 0.03 0.04 l -0.1,0.04 v 0.03 0.04 c -6.3,6.28 -7.9,15.69 -7.9,23.31 0,8.68 1.9,17.35 8.1,23.57 0.6,0.61 0.6,0.7 0.6,0.86 0,0.34 -0.2,0.48 -0.5,0.48 -0.5,0 -5,-3.37 -7.9,-9.7 -2.5,-5.49 -3.2,-11.02 -3.2,-15.21 0,-3.89 0.6,-9.9 3.3,-15.54 3,-6.13 7.3,-9.36 7.8,-9.36 0.3,0 0.5,0.14 0.5,0.5 z"
           inkscape:connector-curvature="0"
           style="fill:#cc0000;fill-opacity:1;stroke-width:0" /><path
           id="path1210"
           d="m 1064.1,366.36 h 4.7 c 1,0 1.5,0 1.5,1 0,0.55 -0.5,0.55 -1.4,0.55 h -4.4 c 1.8,7.08 2,8.08 2,8.38 0,0.84 -0.6,1.34 -1.4,1.34 -0.2,0 -1.5,-0.05 -2,-1.8 l -1.9,-7.92 h -4.7 c -1,0 -1.5,0 -1.5,-0.94 0,-0.61 0.4,-0.61 1.4,-0.61 h 4.4 c -3.6,-14.14 -3.8,-14.98 -3.8,-15.89 0,-2.68 1.9,-4.58 4.6,-4.58 5,0 7.9,7.27 7.9,7.68 0,0.5 -0.4,0.5 -0.6,0.5 -0.5,0 -0.5,-0.16 -0.8,-0.71 -2.1,-5.17 -4.8,-6.37 -6.4,-6.37 -1.1,0 -1.6,0.65 -1.6,2.3 0,1.18 0.1,1.54 0.3,2.39 z"
           inkscape:connector-curvature="0"
           style="fill:#cc0000;fill-opacity:1;stroke-width:0" /><path
           id="path1212"
           d="m 1089.8,349.99 v 0.71 0.68 0.66 l -0.1,0.64 v 0.62 l -0.1,0.59 -0.1,0.58 -0.1,0.56 -0.1,0.55 -0.2,0.52 -0.1,0.52 -0.2,0.5 -0.3,0.49 -0.2,0.48 -0.3,0.47 -0.1,0.23 -0.1,0.23 c -1.1,1.61 -3.3,3 -6.1,3 -8,0 -8,-9.52 -8,-12.03 0,-2.5 0,-11.81 8,-11.81 v 0.98 c -1.6,0 -3.7,0.94 -4.4,3.8 -0.5,2.04 -0.5,4.9 -0.5,7.48 0,2.55 0,5.2 0.5,7.11 0.8,2.75 3,3.49 4.4,3.49 1.9,0 3.7,-1.15 4.4,-3.18 0.5,-1.87 0.6,-4.39 0.6,-7.42 0,-2.58 0,-5.15 -0.5,-7.34 -0.7,-3.17 -3.1,-3.94 -4.5,-3.94 v 0 -0.98 c 8.1,0 8.1,9.31 8.1,11.81 z"
           inkscape:connector-curvature="0"
           style="fill:#cc0000;fill-opacity:1;stroke-width:0" /><path
           id="path1214"
           d="m 1108.7,358.89 v 0.38 0.38 0.39 l -0.1,0.41 v 0.84 l -0.1,0.88 v 0.92 l -0.1,0.95 -0.2,0.98 -0.1,1 -0.2,1.02 -0.3,1.04 -0.2,1.05 -0.3,1.06 -0.4,1.06 -0.4,1.07 -0.2,0.53 -0.2,0.53 -0.3,0.53 -0.2,0.53 c -3,6.13 -7.3,9.36 -7.8,9.36 -0.3,0 -0.5,-0.19 -0.5,-0.48 0,-0.16 0,-0.25 1,-1.16 4.8,-4.92 7.7,-12.84 7.7,-23.27 0,-8.51 -1.9,-17.28 -8,-23.56 -0.7,-0.59 -0.7,-0.7 -0.7,-0.84 0,-0.3 0.2,-0.5 0.5,-0.5 0.5,0 5,3.39 8,9.72 2.5,5.47 3.1,11 3.1,15.18 z"
           inkscape:connector-curvature="0"
           style="fill:#cc0000;fill-opacity:1;stroke-width:0" /><path
           id="path1216"
           d="m 1161.8,362.74 h 0.1 0.1 0.2 v 0.01 h 0.1 l 0.1,0.01 0.1,0.01 v 0.01 l 0.1,0.01 0.1,0.01 v 0.02 l 0.1,0.02 0.1,0.02 v 0.03 l 0.1,0.02 v 0.03 l 0.1,0.04 v 0.04 l 0.1,0.04 v 0.04 l 0.1,0.05 v 0.03 0.03 0.03 0.03 l 0.1,0.03 v 0.03 0.03 0.04 0.03 0.04 0.04 0.04 0.04 0.04 0.05 0.04 c 0,1 -0.9,1 -1.6,1 h -29.9 c -0.7,0 -1.6,0 -1.6,-1 0,-0.98 0.9,-0.98 1.7,-0.98 z"
           inkscape:connector-curvature="0"
           style="fill:#cc0000;fill-opacity:1;stroke-width:0" /><path
           id="path1218"
           d="m 1161.8,353.07 h 0.1 v 0 h 0.2 0.1 l 0.1,0.01 v 0 l 0.1,0.01 0.1,0.01 0.1,0.01 v 0.01 l 0.1,0.01 v 0.02 l 0.1,0.02 0.1,0.02 v 0.03 l 0.1,0.02 v 0.04 l 0.1,0.03 0.1,0.04 v 0.04 0.05 l 0.1,0.02 v 0.03 0.02 0.03 0.03 0.03 l 0.1,0.03 v 0.04 0.03 0.04 0.03 0.04 0.04 0.04 0.04 0.05 0.04 0.05 c 0,1 -0.9,1 -1.6,1 H 1132 c -0.8,0 -1.7,0 -1.7,-1 0,-1 0.9,-1 1.6,-1 z"
           inkscape:connector-curvature="0"
           style="fill:#cc0000;fill-opacity:1;stroke-width:0" /><path
           id="path1220"
           d="m 1196.7,361.49 v 0.13 l 0.1,0.15 v 0.16 l 0.1,0.18 v 0.2 l 0.1,0.2 v 0.22 l 0.1,0.22 0.1,0.24 0.1,0.24 0.1,0.24 0.1,0.25 0.1,0.25 0.1,0.25 0.1,0.25 0.2,0.24 0.1,0.24 0.2,0.24 0.2,0.23 0.1,0.23 0.2,0.21 0.2,0.2 0.2,0.19 0.2,0.18 0.3,0.16 0.2,0.14 0.1,0.07 0.2,0.06 0.1,0.05 0.1,0.05 0.2,0.05 0.1,0.04 0.2,0.03 0.1,0.03 0.2,0.02 0.1,0.02 0.2,0.01 h 0.2 c 0.2,0 1.4,0 2.4,-0.64 -1.3,-0.25 -2.3,-1.5 -2.3,-2.68 0,-0.8 0.5,-1.75 1.8,-1.75 1.1,0 2.7,0.89 2.7,2.89 0,2.59 -2.9,3.28 -4.6,3.28 -2.9,0 -4.6,-2.64 -5.2,-3.78 -1.3,3.28 -4,3.78 -5.4,3.78 -5.2,0 -8,-6.42 -8,-7.67 0,-0.5 0.5,-0.5 0.6,-0.5 0.4,0 0.5,0.1 0.6,0.54 1.7,5.28 5,6.53 6.7,6.53 0.9,0 2.7,-0.43 2.7,-3.32 0,-1.55 -0.9,-4.9 -2.7,-11.86 -0.8,-3.1 -2.6,-5.19 -4.8,-5.19 -0.3,0 -1.4,0 -2.4,0.65 1.2,0.24 2.3,1.29 2.3,2.69 0,1.35 -1.1,1.74 -1.8,1.74 -1.5,0 -2.8,-1.3 -2.8,-2.89 0,-2.29 2.5,-3.29 4.7,-3.29 3.3,0 5.1,3.49 5.2,3.79 0.6,-1.85 2.4,-3.79 5.4,-3.79 5.1,0 8,6.43 8,7.68 0,0.5 -0.5,0.5 -0.6,0.5 -0.4,0 -0.6,-0.21 -0.7,-0.55 -1.6,-5.33 -5,-6.53 -6.6,-6.53 -1.9,0 -2.7,1.59 -2.7,3.3 0,1.09 0.3,2.18 0.8,4.37 z"
           inkscape:connector-curvature="0"
           style="fill:#cc0000;fill-opacity:1;stroke-width:0" /><path
           id="path1222"
           d="m 1225,334.49 v 0.02 0.03 0.01 0.02 0.01 0.02 0.02 0.01 0.02 0.02 l -0.1,0.03 v 0.02 0.02 0.03 0.03 l -0.1,0.03 v 0.04 0.03 0.02 0.02 l -0.1,0.02 v 0.02 0.02 0.03 0.02 l -0.1,0.02 v 0.03 0.03 0.02 l -0.1,0.03 v 0.03 0.03 0.03 l -0.1,0.03 v 0.03 0.03 l -0.1,0.04 v 0.03 0.04 l -0.1,0.04 v 0.03 0.04 c -6.3,6.28 -7.9,15.69 -7.9,23.31 0,8.68 1.9,17.35 8.1,23.57 0.6,0.61 0.6,0.7 0.6,0.86 0,0.34 -0.2,0.48 -0.5,0.48 -0.5,0 -5,-3.37 -7.9,-9.7 -2.6,-5.49 -3.2,-11.02 -3.2,-15.21 0,-3.89 0.6,-9.9 3.3,-15.54 3,-6.13 7.3,-9.36 7.8,-9.36 0.3,0 0.5,0.14 0.5,0.5 z"
           inkscape:connector-curvature="0"
           style="fill:#cc0000;fill-opacity:1;stroke-width:0" /><path
           id="path1224"
           d="m 1238.1,366.36 h 4.7 c 1,0 1.5,0 1.5,1 0,0.55 -0.5,0.55 -1.4,0.55 h -4.4 c 1.8,7.08 2,8.08 2,8.38 0,0.84 -0.6,1.34 -1.4,1.34 -0.2,0 -1.5,-0.05 -2,-1.8 l -1.9,-7.92 h -4.7 c -1,0 -1.5,0 -1.5,-0.94 0,-0.61 0.4,-0.61 1.4,-0.61 h 4.4 c -3.6,-14.14 -3.8,-14.98 -3.8,-15.89 0,-2.68 1.9,-4.58 4.6,-4.58 5,0 7.9,7.27 7.9,7.68 0,0.5 -0.4,0.5 -0.6,0.5 -0.5,0 -0.5,-0.16 -0.8,-0.71 -2.1,-5.17 -4.8,-6.37 -6.4,-6.37 -1.1,0 -1.6,0.65 -1.6,2.3 0,1.18 0.1,1.54 0.3,2.39 z"
           inkscape:connector-curvature="0"
           style="fill:#cc0000;fill-opacity:1;stroke-width:0" /><path
           id="path1226"
           d="m 1263.8,349.99 v 0.71 0.68 0.66 l -0.1,0.64 v 0.62 l -0.1,0.59 -0.1,0.58 -0.1,0.56 -0.1,0.55 -0.2,0.52 -0.1,0.52 -0.2,0.5 -0.3,0.49 -0.2,0.48 -0.3,0.47 -0.1,0.23 -0.1,0.23 c -1.1,1.61 -3.3,3 -6.1,3 -8,0 -8,-9.52 -8,-12.03 0,-2.5 0,-11.81 8,-11.81 v 0.98 c -1.6,0 -3.7,0.94 -4.4,3.8 -0.5,2.04 -0.5,4.9 -0.5,7.48 0,2.55 0,5.2 0.5,7.11 0.8,2.75 3,3.49 4.4,3.49 1.9,0 3.7,-1.15 4.4,-3.18 0.5,-1.87 0.6,-4.39 0.6,-7.42 0,-2.58 0,-5.15 -0.5,-7.34 -0.7,-3.17 -3.1,-3.94 -4.5,-3.94 v 0 -0.98 c 8.1,0 8.1,9.31 8.1,11.81 z"
           inkscape:connector-curvature="0"
           style="fill:#cc0000;fill-opacity:1;stroke-width:0" /><path
           id="path1228"
           d="m 1282.7,358.89 v 0.38 0.38 0.39 l -0.1,0.41 v 0.84 l -0.1,0.88 v 0.92 l -0.1,0.95 -0.2,0.98 -0.1,1 -0.2,1.02 -0.3,1.04 -0.2,1.05 -0.3,1.06 -0.4,1.06 -0.4,1.07 -0.2,0.53 -0.2,0.53 -0.3,0.53 -0.2,0.53 c -3,6.13 -7.3,9.36 -7.8,9.36 -0.3,0 -0.5,-0.19 -0.5,-0.48 0,-0.16 0,-0.25 1,-1.16 4.8,-4.92 7.7,-12.84 7.7,-23.27 0,-8.51 -1.9,-17.28 -8,-23.56 -0.7,-0.59 -0.7,-0.7 -0.7,-0.84 0,-0.3 0.2,-0.5 0.5,-0.5 0.5,0 5,3.39 8,9.72 2.5,5.47 3.1,11 3.1,15.18 z"
           inkscape:connector-curvature="0"
           style="fill:#cc0000;fill-opacity:1;stroke-width:0" /><path
           id="path1230"
           d="m 1319.1,357.89 h 13.9 c 0.7,0 1.7,0 1.7,1 0,1 -1,1 -1.7,1 h -13.9 v 13.96 c 0,0.69 0,1.64 -1,1.64 -0.9,0 -0.9,-0.95 -0.9,-1.64 v -13.96 h -14 c -0.7,0 -1.6,0 -1.6,-1 0,-1 0.9,-1 1.6,-1 h 14 v -13.93 c 0,-0.71 0,-1.66 0.9,-1.66 1,0 1,0.95 1,1.66 z"
           inkscape:connector-curvature="0"
           style="fill:#cc0000;fill-opacity:1;stroke-width:0" /><path
           id="path1232"
           d="m 1362.7,377.58 v 0.1 0.09 0.09 0.09 0.08 l -0.1,0.09 v 0.08 0.08 l -0.1,0.08 v 0.08 0.08 l -0.1,0.07 v 0.07 l -0.1,0.07 v 0.06 l -0.1,0.07 v 0.05 l -0.1,0.06 -0.1,0.05 v 0.05 l -0.1,0.05 -0.1,0.04 -0.1,0.04 -0.1,0.04 v 0.03 l -0.1,0.03 -0.1,0.02 -0.1,0.02 -0.1,0.02 -0.1,0.01 -0.1,0.01 h -0.1 c -1.4,0 -2.7,-1.3 -2.7,-2.64 0,-0.95 0.7,-1.8 1.9,-1.8 1.1,0 2.6,1.14 2.6,2.64 z"
           inkscape:connector-curvature="0"
           style="fill:#cc0000;fill-opacity:1;stroke-width:0" /><path
           id="path1234"
           d="m 1358.9,358.85 0.1,0.13 v 0.12 l 0.1,0.12 v 0.11 l 0.1,0.1 v 0.1 0.1 l 0.1,0.09 v 0.08 0.08 l 0.1,0.08 v 0.08 0.07 0.08 l 0.1,0.14 v 0.14 l 0.1,0.14 v 0.08 l 0.1,0.07 v 0.08 0.08 0.09 l 0.1,0.09 v 0.09 0.1 l 0.1,0.1 v 0.11 l 0.1,0.12 v 0.12 c 0.4,1 0.7,1.69 0.7,2.64 0,2.23 -1.6,4.08 -4.1,4.08 -4.7,0 -6.6,-7.22 -6.6,-7.67 0,-0.5 0.5,-0.5 0.6,-0.5 0.5,0 0.6,0.1 0.8,0.9 1.3,4.69 3.3,6.17 5,6.17 0.4,0 1.3,0 1.3,-1.59 0,-1.05 -0.4,-2.09 -0.6,-2.59 -0.4,-1.3 -2.6,-7.07 -3.4,-9.22 -0.5,-1.28 -1.2,-2.94 -1.2,-3.99 0,-2.33 1.7,-4.08 4.1,-4.08 4.7,0 6.6,7.22 6.6,7.68 0,0.5 -0.5,0.5 -0.6,0.5 -0.5,0 -0.5,-0.16 -0.8,-0.91 -0.9,-3.12 -2.5,-6.17 -5.1,-6.17 -0.8,0 -1.2,0.5 -1.2,1.64 0,1.25 0.3,1.95 1.5,4.98 z"
           inkscape:connector-curvature="0"
           style="fill:#cc0000;fill-opacity:1;stroke-width:0" /><path
           id="path1236"
           d="m 1389.9,365.43 v 0.03 0.03 l 0.1,0.06 v 0.05 0.06 0.05 0.05 0.04 0.05 0.04 l 0.1,0.04 v 0.03 0.04 0.03 0.03 0.04 0.02 0.03 0.03 0.06 0.05 0.05 0.05 0.06 0.03 0.02 0.03 0.04 c 0,0.9 -0.7,1.34 -1.4,1.34 -0.5,0 -1.3,-0.3 -1.8,-1.05 -0.1,-0.25 -0.5,-1.78 -0.7,-2.68 -0.3,-1.3 -0.7,-2.64 -1,-3.99 l -2.2,-8.97 c -0.2,-0.75 -2.3,-4.23 -5.6,-4.23 -2.6,0 -3.1,2.19 -3.1,4.03 0,2.3 0.8,5.39 2.5,9.77 0.8,2.04 1,2.59 1,3.59 0,2.23 -1.6,4.08 -4.1,4.08 -4.7,0 -6.5,-7.22 -6.5,-7.67 0,-0.5 0.5,-0.5 0.6,-0.5 0.5,0 0.5,0.1 0.8,0.9 1.3,4.69 3.3,6.17 5,6.17 0.4,0 1.2,0 1.2,-1.59 0,-1.25 -0.5,-2.53 -0.8,-3.48 -2,-5.29 -2.9,-8.13 -2.9,-10.47 0,-4.43 3.1,-5.93 6.1,-5.93 1.9,0 3.6,0.85 5,2.24 -0.6,-2.58 -1.2,-5.03 -3.2,-7.67 -1.3,-1.69 -3.2,-3.14 -5.5,-3.14 -0.7,0 -3,0.15 -3.8,2.09 0.8,0 1.5,0 2.1,0.61 0.5,0.44 1,1.09 1,2.03 0,1.55 -1.3,1.75 -1.8,1.75 -1.2,0 -2.8,-0.8 -2.8,-3.23 0,-2.5 2.2,-4.35 5.3,-4.35 5.1,0 10.2,4.55 11.7,10.17 z"
           inkscape:connector-curvature="0"
           style="fill:#cc0000;fill-opacity:1;stroke-width:0" /><path
           id="path1238"
           d="m 1408.5,334.49 v 0.02 0.03 0.01 0.02 0.01 0.02 0.02 l -0.1,0.01 v 0.02 0.02 0.03 0.02 0.02 0.03 l -0.1,0.03 v 0.03 0.04 0.03 l -0.1,0.02 v 0.02 0.02 0.02 0.02 0.03 l -0.1,0.02 v 0.02 0.03 0.03 l -0.1,0.02 v 0.03 0.03 0.03 l -0.1,0.03 v 0.03 0.03 l -0.1,0.03 v 0.04 0.03 l -0.1,0.04 v 0.04 0.03 l -0.1,0.04 c -6.2,6.28 -7.8,15.69 -7.8,23.31 0,8.68 1.9,17.35 8,23.57 0.7,0.61 0.7,0.7 0.7,0.86 0,0.34 -0.2,0.48 -0.5,0.48 -0.5,0 -5,-3.37 -7.9,-9.7 -2.6,-5.49 -3.2,-11.02 -3.2,-15.21 0,-3.89 0.6,-9.9 3.3,-15.54 3,-6.13 7.3,-9.36 7.8,-9.36 0.3,0 0.5,0.14 0.5,0.5 z"
           inkscape:connector-curvature="0"
           style="fill:#cc0000;fill-opacity:1;stroke-width:0" /><path
           id="path1240"
           d="m 1421.6,366.36 h 4.7 c 0.9,0 1.4,0 1.4,1 0,0.55 -0.5,0.55 -1.4,0.55 h -4.3 c 1.8,7.08 2,8.08 2,8.38 0,0.84 -0.6,1.34 -1.4,1.34 -0.2,0 -1.6,-0.05 -2,-1.8 l -2,-7.92 h -4.7 c -1,0 -1.5,0 -1.5,-0.94 0,-0.61 0.4,-0.61 1.4,-0.61 h 4.4 c -3.5,-14.14 -3.8,-14.98 -3.8,-15.89 0,-2.68 1.9,-4.58 4.6,-4.58 5.1,0 7.9,7.27 7.9,7.68 0,0.5 -0.3,0.5 -0.6,0.5 -0.4,0 -0.5,-0.16 -0.7,-0.71 -2.1,-5.17 -4.8,-6.37 -6.5,-6.37 -1,0 -1.5,0.65 -1.5,2.3 0,1.18 0.1,1.54 0.3,2.39 z"
           inkscape:connector-curvature="0"
           style="fill:#cc0000;fill-opacity:1;stroke-width:0" /><path
           id="path1242"
           d="m 1447.3,349.99 v 0.71 0.68 l -0.1,0.66 v 0.64 l -0.1,0.62 v 0.59 l -0.1,0.58 -0.1,0.56 -0.2,0.55 -0.1,0.52 -0.2,0.52 -0.2,0.5 -0.2,0.49 -0.2,0.48 -0.3,0.47 -0.1,0.23 -0.2,0.23 c -1,1.61 -3.2,3 -6,3 -8.1,0 -8.1,-9.52 -8.1,-12.03 0,-2.5 0,-11.81 8.1,-11.81 v 0.98 c -1.6,0 -3.7,0.94 -4.4,3.8 -0.5,2.04 -0.5,4.9 -0.5,7.48 0,2.55 0,5.2 0.5,7.11 0.8,2.75 3,3.49 4.4,3.49 1.9,0 3.7,-1.15 4.3,-3.18 0.6,-1.87 0.6,-4.39 0.6,-7.42 0,-2.58 0,-5.15 -0.4,-7.34 -0.7,-3.17 -3.1,-3.94 -4.5,-3.94 v 0 -0.98 c 8.1,0 8.1,9.31 8.1,11.81 z"
           inkscape:connector-curvature="0"
           style="fill:#cc0000;fill-opacity:1;stroke-width:0" /><path
           id="path1244"
           d="m 1466,358.89 v 0.38 0.38 0.39 0.41 0.84 l -0.1,0.88 -0.1,0.92 -0.1,0.95 -0.1,0.98 -0.2,1 -0.2,1.02 -0.2,1.04 -0.3,1.05 -0.3,1.06 -0.3,1.06 -0.4,1.07 -0.2,0.53 -0.3,0.53 -0.2,0.53 -0.2,0.53 c -3,6.13 -7.3,9.36 -7.8,9.36 -0.3,0 -0.5,-0.19 -0.5,-0.48 0,-0.16 0,-0.25 0.9,-1.16 4.9,-4.92 7.8,-12.84 7.8,-23.27 0,-8.51 -1.9,-17.28 -8.1,-23.56 -0.6,-0.59 -0.6,-0.7 -0.6,-0.84 0,-0.3 0.2,-0.5 0.5,-0.5 0.5,0 4.9,3.39 7.9,9.72 2.5,5.47 3.1,11 3.1,15.18 z"
           inkscape:connector-curvature="0"
           style="fill:#cc0000;fill-opacity:1;stroke-width:0" /></g>    </g>
    <path
       style="opacity:1;vector-effect:none;fill:none;fill-opacity:1;fill-rule:evenodd;stroke:#000000;stroke-width:1.20200002;stroke-linecap:butt;stroke-linejoin:miter;stroke-miterlimit:4;stroke-dasharray:none;stroke-dashoffset:0;stroke-opacity:1"
       d="m 3582.3334,865.36941 a 381.7178,381.7178 0 0 0 -351.3512,192.65639 l 703.838,270.1849 a 381.7178,381.7178 0 0 0 8.7651,-61.6986 381.7178,381.7178 0 0 0 -361.2519,-401.14269 z"
       id="path1334"
       inkscape:connector-curvature="0" />
    <path
       style="opacity:1;vector-effect:none;fill:none;fill-opacity:1;stroke:#000000;stroke-width:3.40157461;stroke-linecap:butt;stroke-linejoin:miter;stroke-miterlimit:4;stroke-dasharray:none;stroke-dashoffset:0;stroke-opacity:1"
       d="M 3678.5951,880.95641 3547.0153,1181.0173"
       id="path1339"
       inkscape:connector-curvature="0" />
    <g
       id="g1402"
       transform="matrix(0.12767568,0,0,0.12767568,3194.9656,836.10821)">
      <g
         word-spacing="normal"
         letter-spacing="normal"
         font-size-adjust="none"
         font-stretch="normal"
         font-weight="normal"
         font-variant="normal"
         font-style="normal"
         stroke-miterlimit="10.433"
         xml:space="preserve"
         transform="matrix(3.6571429,0,0,-3.6571429,-640,1920)"
         id="g1400"
         style="font-style:normal;font-variant:normal;font-weight:normal;font-stretch:normal;letter-spacing:normal;word-spacing:normal;text-anchor:start;fill:none;fill-opacity:1;fill-rule:evenodd;stroke:#000000;stroke-linecap:butt;stroke-linejoin:miter;stroke-miterlimit:10.43299961;stroke-dasharray:none;stroke-dashoffset:0;stroke-opacity:1"><path
           id="path1390"
           d="m 1194.5,350.58 0.2,0.27 0.3,0.26 0.2,0.24 0.3,0.24 0.2,0.23 0.2,0.23 0.2,0.21 0.2,0.21 0.2,0.2 0.2,0.2 0.2,0.19 0.2,0.18 0.2,0.18 0.2,0.17 0.3,0.33 0.3,0.32 0.4,0.3 0.3,0.3 0.3,0.28 0.7,0.56 0.3,0.29 0.3,0.28 c 0,0.05 3.1,2.69 4.9,4.49 4.8,4.64 5.8,7.03 5.8,7.22 0,0.5 -0.4,0.5 -0.5,0.5 -0.4,0 -0.5,-0.1 -0.8,-0.55 -1.4,-2.39 -2.5,-3.19 -3.7,-3.19 -1.2,0 -1.8,0.75 -2.5,1.6 -1,1.15 -1.8,2.14 -3.5,2.14 -3.7,0 -6,-4.63 -6,-5.67 0,-0.25 0.1,-0.55 0.6,-0.55 0.5,0 0.5,0.25 0.6,0.55 1,2.29 3.9,2.34 4.3,2.34 1,0 2,-0.36 3.1,-0.75 2,-0.75 2.6,-0.75 3.9,-0.75 -1.8,-2.14 -6,-5.74 -7,-6.53 l -4.4,-4.17 c -3.4,-3.35 -5.2,-6.19 -5.2,-6.54 0,-0.5 0.5,-0.5 0.6,-0.5 0.4,0 0.5,0.1 0.8,0.65 1.2,1.75 2.7,3.09 4.2,3.09 1.2,0 1.7,-0.45 2.9,-1.89 0.9,-1.05 1.8,-1.85 3.2,-1.85 5,0 7.9,6.33 7.9,7.68 0,0.25 -0.3,0.5 -0.6,0.5 -0.5,0 -0.6,-0.3 -0.8,-0.66 -1.1,-3.23 -4.3,-4.17 -5.9,-4.17 -1,0 -1.9,0.3 -3,0.64 -1.7,0.64 -2.4,0.84 -3.5,0.84 0,0 -0.8,0 -1.3,-0.14 z"
           inkscape:connector-curvature="0"
           style="fill:#000000;stroke-width:0" /><path
           id="path1392"
           d="m 1229.7,334.49 v 0.02 0.03 0.01 0.02 0.01 0.02 0.02 0.01 l -0.1,0.02 v 0.02 0.03 0.02 0.02 0.03 0.03 l -0.1,0.03 v 0.04 0.03 0.02 l -0.1,0.02 v 0.02 0.02 0.02 0.03 l -0.1,0.02 v 0.02 0.03 0.03 0.02 l -0.1,0.03 v 0.03 0.03 l -0.1,0.03 v 0.03 0.03 0.03 l -0.1,0.04 v 0.03 0.04 l -0.1,0.04 v 0.03 l -0.1,0.04 c -6.2,6.28 -7.8,15.69 -7.8,23.31 0,8.68 1.9,17.35 8,23.57 0.7,0.61 0.7,0.7 0.7,0.86 0,0.34 -0.2,0.48 -0.5,0.48 -0.5,0 -5,-3.37 -7.9,-9.7 -2.6,-5.49 -3.2,-11.02 -3.2,-15.21 0,-3.89 0.6,-9.9 3.3,-15.54 3,-6.13 7.3,-9.36 7.8,-9.36 0.3,0 0.5,0.14 0.5,0.5 z"
           inkscape:connector-curvature="0"
           style="fill:#000000;stroke-width:0" /><path
           id="path1394"
           d="m 1242.8,366.36 h 4.7 c 0.9,0 1.4,0 1.4,1 0,0.55 -0.5,0.55 -1.3,0.55 h -4.4 c 1.8,7.08 2,8.08 2,8.38 0,0.84 -0.6,1.34 -1.4,1.34 -0.2,0 -1.6,-0.05 -2,-1.8 l -2,-7.92 h -4.6 c -1,0 -1.5,0 -1.5,-0.94 0,-0.61 0.4,-0.61 1.4,-0.61 h 4.3 c -3.5,-14.14 -3.7,-14.98 -3.7,-15.89 0,-2.68 1.8,-4.58 4.5,-4.58 5.1,0 8,7.27 8,7.68 0,0.5 -0.4,0.5 -0.6,0.5 -0.5,0 -0.5,-0.16 -0.8,-0.71 -2.1,-5.17 -4.8,-6.37 -6.5,-6.37 -1,0 -1.5,0.65 -1.5,2.3 0,1.18 0.1,1.54 0.3,2.39 z"
           inkscape:connector-curvature="0"
           style="fill:#000000;stroke-width:0" /><path
           id="path1396"
           d="m 1268.5,349.99 v 0.71 0.68 l -0.1,0.66 v 0.64 l -0.1,0.62 v 0.59 l -0.1,0.58 -0.1,0.56 -0.2,0.55 -0.1,0.52 -0.2,0.52 -0.2,0.5 -0.2,0.49 -0.2,0.48 -0.3,0.47 -0.1,0.23 -0.2,0.23 c -1,1.61 -3.2,3 -6,3 -8.1,0 -8.1,-9.52 -8.1,-12.03 0,-2.5 0,-11.81 8.1,-11.81 v 0.98 c -1.6,0 -3.7,0.94 -4.4,3.8 -0.5,2.04 -0.5,4.9 -0.5,7.48 0,2.55 0,5.2 0.5,7.11 0.8,2.75 3,3.49 4.4,3.49 1.9,0 3.7,-1.15 4.3,-3.18 0.6,-1.87 0.6,-4.39 0.6,-7.42 0,-2.58 0,-5.15 -0.4,-7.34 -0.7,-3.17 -3.1,-3.94 -4.5,-3.94 v 0 -0.98 c 8.1,0 8.1,9.31 8.1,11.81 z"
           inkscape:connector-curvature="0"
           style="fill:#000000;stroke-width:0" /><path
           id="path1398"
           d="m 1287.3,358.89 v 0.38 0.38 0.39 0.41 0.84 l -0.1,0.88 -0.1,0.92 -0.1,0.95 -0.1,0.98 -0.2,1 -0.2,1.02 -0.2,1.04 -0.3,1.05 -0.3,1.06 -0.3,1.06 -0.4,1.07 -0.2,0.53 -0.2,0.53 -0.3,0.53 -0.2,0.53 c -3,6.13 -7.3,9.36 -7.8,9.36 -0.3,0 -0.5,-0.19 -0.5,-0.48 0,-0.16 0,-0.25 0.9,-1.16 4.9,-4.92 7.8,-12.84 7.8,-23.27 0,-8.51 -1.9,-17.28 -8.1,-23.56 -0.6,-0.59 -0.6,-0.7 -0.6,-0.84 0,-0.3 0.2,-0.5 0.5,-0.5 0.5,0 5,3.39 7.9,9.72 2.6,5.47 3.1,11 3.1,15.18 z"
           inkscape:connector-curvature="0"
           style="fill:#000000;stroke-width:0" /></g>    </g>
    <g
       id="g1518"
       transform="matrix(0.05048172,-0.13044599,0.13044599,0.05048172,3351.2011,1539.9593)">
      <g
         word-spacing="normal"
         letter-spacing="normal"
         font-size-adjust="none"
         font-stretch="normal"
         font-weight="normal"
         font-variant="normal"
         font-style="normal"
         stroke-miterlimit="10.433"
         xml:space="preserve"
         transform="matrix(3.6571429,0,0,-3.6571429,-640,1920)"
         id="g1516"
         style="font-style:normal;font-variant:normal;font-weight:normal;font-stretch:normal;letter-spacing:normal;word-spacing:normal;text-anchor:start;fill:none;fill-opacity:1;fill-rule:evenodd;stroke:#000000;stroke-linecap:butt;stroke-linejoin:miter;stroke-miterlimit:10.43299961;stroke-dasharray:none;stroke-dashoffset:0;stroke-opacity:1"><path
           id="path1470"
           d="m 1081.2,394.98 v 0.09 0.09 0.1 0.08 l -0.1,0.09 v 0.09 0.08 0.08 l -0.1,0.08 v 0.08 0.08 l -0.1,0.07 v 0.07 l -0.1,0.07 v 0.06 l -0.1,0.06 -0.1,0.06 v 0.06 l -0.1,0.05 -0.1,0.05 v 0.05 l -0.1,0.04 -0.1,0.04 -0.1,0.04 -0.1,0.03 -0.1,0.03 v 0.02 l -0.1,0.02 -0.1,0.02 -0.1,0.01 h -0.1 l -0.2,0.01 c -1.3,0 -2.6,-1.3 -2.6,-2.64 0,-0.96 0.6,-1.8 1.9,-1.8 1.1,0 2.6,1.14 2.6,2.64 z"
           inkscape:connector-curvature="0"
           style="fill:#000000;stroke-width:0" /><path
           id="path1472"
           d="m 1077.4,376.25 0.1,0.13 v 0.12 l 0.1,0.12 v 0.11 0.1 l 0.1,0.1 v 0.1 0.09 l 0.1,0.08 v 0.08 0.08 l 0.1,0.08 v 0.07 0.07 l 0.1,0.15 v 0.14 l 0.1,0.14 v 0.07 0.08 l 0.1,0.08 v 0.08 0.09 l 0.1,0.08 v 0.1 0.1 l 0.1,0.1 v 0.11 0.11 l 0.1,0.13 c 0.4,1 0.7,1.68 0.7,2.64 0,2.23 -1.6,4.08 -4.1,4.08 -4.7,0 -6.6,-7.22 -6.6,-7.68 0,-0.5 0.5,-0.5 0.6,-0.5 0.5,0 0.5,0.11 0.8,0.91 1.3,4.69 3.3,6.17 5,6.17 0.4,0 1.3,0 1.3,-1.59 0,-1.05 -0.4,-2.1 -0.6,-2.6 -0.4,-1.29 -2.6,-7.06 -3.4,-9.21 -0.5,-1.29 -1.2,-2.94 -1.2,-3.99 0,-2.33 1.7,-4.08 4.1,-4.08 4.7,0 6.5,7.22 6.5,7.67 0,0.5 -0.4,0.5 -0.6,0.5 -0.5,0 -0.5,-0.15 -0.7,-0.9 -0.9,-3.13 -2.5,-6.17 -5.1,-6.17 -0.8,0 -1.2,0.5 -1.2,1.64 0,1.25 0.3,1.95 1.5,4.98 z"
           inkscape:connector-curvature="0"
           style="fill:#000000;stroke-width:0" /><path
           id="path1474"
           d="m 1102.3,394.53 v 0.12 0.13 0.12 l -0.1,0.13 v 0.12 0.12 l -0.1,0.12 v 0.12 l -0.1,0.11 v 0.12 l -0.1,0.11 -0.1,0.1 v 0.11 l -0.1,0.1 -0.1,0.1 -0.1,0.09 -0.1,0.09 -0.1,0.09 -0.1,0.08 -0.1,0.08 -0.1,0.07 -0.1,0.07 -0.1,0.06 -0.1,0.05 -0.1,0.05 -0.2,0.05 -0.1,0.04 -0.1,0.03 -0.1,0.02 -0.2,0.02 -0.1,0.01 -0.2,0.01 c -1.7,0 -2.7,-1.39 -2.7,-2.64 0,-1.35 1.2,-2.64 2.7,-2.64 1.7,0 2.7,1.39 2.7,2.64 z"
           inkscape:connector-curvature="0"
           style="fill:#000000;stroke-width:0" /><path
           id="path1476"
           d="m 1090.8,367.98 0.3,0.27 0.2,0.25 0.2,0.25 0.3,0.24 0.2,0.23 0.2,0.22 0.2,0.22 0.2,0.21 0.2,0.2 0.2,0.19 0.2,0.19 0.2,0.19 0.2,0.18 0.2,0.17 0.3,0.33 0.4,0.32 0.3,0.3 0.3,0.29 0.3,0.29 0.7,0.56 0.3,0.29 0.4,0.28 c 0,0.05 3,2.69 4.8,4.49 4.8,4.64 5.9,7.03 5.9,7.22 0,0.5 -0.5,0.5 -0.6,0.5 -0.3,0 -0.5,-0.1 -0.7,-0.55 -1.5,-2.39 -2.6,-3.19 -3.8,-3.19 -1.2,0 -1.8,0.75 -2.5,1.59 -1,1.16 -1.8,2.15 -3.5,2.15 -3.7,0 -6,-4.63 -6,-5.68 0,-0.25 0.2,-0.54 0.6,-0.54 0.5,0 0.6,0.25 0.7,0.54 0.9,2.3 3.8,2.35 4.2,2.35 1,0 2,-0.36 3.1,-0.75 2,-0.75 2.6,-0.75 3.9,-0.75 -1.8,-2.14 -6,-5.74 -6.9,-6.53 l -4.5,-4.18 c -3.4,-3.34 -5.2,-6.18 -5.2,-6.53 0,-0.5 0.5,-0.5 0.6,-0.5 0.4,0 0.5,0.1 0.8,0.64 1.2,1.75 2.7,3.1 4.3,3.1 1.1,0 1.6,-0.46 2.8,-1.89 0.9,-1.05 1.8,-1.85 3.2,-1.85 5,0 7.9,6.33 7.9,7.67 0,0.25 -0.2,0.5 -0.6,0.5 -0.5,0 -0.6,-0.29 -0.7,-0.65 -1.2,-3.24 -4.4,-4.17 -6,-4.17 -1,0 -1.9,0.29 -3,0.64 -1.6,0.64 -2.4,0.84 -3.4,0.84 -0.1,0 -0.9,0 -1.4,-0.14 z"
           inkscape:connector-curvature="0"
           style="fill:#000000;stroke-width:0" /><path
           id="path1478"
           d="m 1126,351.89 v 0.02 0.03 0.01 0.02 0.01 0.02 0.01 0.02 0.02 l -0.1,0.02 v 0.02 0.03 0.02 0.03 0.03 l -0.1,0.03 v 0.03 0.04 0.02 0.02 l -0.1,0.02 v 0.02 0.02 0.03 0.02 l -0.1,0.02 v 0.03 0.02 0.03 l -0.1,0.03 v 0.03 0.03 0.03 l -0.1,0.03 v 0.03 0.03 l -0.1,0.04 v 0.03 0.04 l -0.1,0.03 v 0.04 0.04 c -6.3,6.28 -7.9,15.69 -7.9,23.31 0,8.67 1.9,17.35 8,23.57 0.7,0.6 0.7,0.7 0.7,0.85 0,0.35 -0.2,0.49 -0.5,0.49 -0.5,0 -5,-3.38 -7.9,-9.7 -2.6,-5.49 -3.2,-11.02 -3.2,-15.21 0,-3.89 0.6,-9.9 3.3,-15.54 3,-6.13 7.3,-9.36 7.8,-9.36 0.3,0 0.5,0.14 0.5,0.5 z"
           inkscape:connector-curvature="0"
           style="fill:#000000;stroke-width:0" /><path
           id="path1480"
           d="m 1139.1,383.76 h 4.7 c 1,0 1.5,0 1.5,1 0,0.55 -0.5,0.55 -1.4,0.55 h -4.4 c 1.8,7.08 2,8.08 2,8.37 0,0.85 -0.6,1.35 -1.4,1.35 -0.2,0 -1.6,-0.05 -2,-1.8 l -1.9,-7.92 h -4.7 c -1,0 -1.5,0 -1.5,-0.94 0,-0.61 0.4,-0.61 1.4,-0.61 h 4.4 c -3.6,-14.14 -3.8,-14.98 -3.8,-15.89 0,-2.69 1.9,-4.58 4.5,-4.58 5.1,0 8,7.27 8,7.67 0,0.5 -0.4,0.5 -0.6,0.5 -0.5,0 -0.5,-0.15 -0.8,-0.7 -2.1,-5.17 -4.8,-6.37 -6.4,-6.37 -1.1,0 -1.6,0.65 -1.6,2.29 0,1.19 0.1,1.55 0.3,2.39 z"
           inkscape:connector-curvature="0"
           style="fill:#000000;stroke-width:0" /><path
           id="path1482"
           d="m 1164.8,367.51 v 0.71 0.68 0.66 l -0.1,0.64 v 0.62 l -0.1,0.59 -0.1,0.58 -0.1,0.56 -0.1,0.55 -0.2,0.52 -0.1,0.52 -0.2,0.5 -0.3,0.49 -0.2,0.48 -0.3,0.47 -0.1,0.23 -0.1,0.23 c -1.1,1.61 -3.3,3 -6.1,3 v -0.99 c 1.9,0 3.7,-1.14 4.4,-3.17 0.5,-1.87 0.6,-4.39 0.6,-7.42 0,-2.58 0,-5.16 -0.5,-7.34 -0.7,-3.17 -3.1,-3.94 -4.5,-3.94 v 0 c -1.6,0 -3.7,0.94 -4.4,3.8 -0.5,2.04 -0.5,4.9 -0.5,7.48 0,2.55 0,5.2 0.5,7.11 0.8,2.75 3,3.48 4.4,3.48 v 0.99 c -8,0 -8,-9.52 -8,-12.03 0,-2.5 0,-11.81 8,-11.81 8.1,0 8.1,9.31 8.1,11.81 z"
           inkscape:connector-curvature="0"
           style="fill:#000000;stroke-width:0" /><path
           id="path1484"
           d="m 1183.7,376.29 v 0.37 0.39 0.39 l -0.1,0.41 v 0.84 l -0.1,0.88 v 0.92 l -0.1,0.95 -0.2,0.98 -0.1,1 -0.2,1.02 -0.3,1.03 -0.2,1.06 -0.3,1.05 -0.4,1.07 -0.4,1.07 -0.2,0.53 -0.2,0.53 -0.3,0.53 -0.2,0.53 c -3,6.12 -7.3,9.36 -7.8,9.36 -0.3,0 -0.5,-0.19 -0.5,-0.49 0,-0.15 0,-0.25 1,-1.15 4.8,-4.92 7.7,-12.85 7.7,-23.27 0,-8.51 -1.9,-17.28 -8,-23.56 -0.7,-0.59 -0.7,-0.7 -0.7,-0.84 0,-0.3 0.2,-0.5 0.5,-0.5 0.5,0 5,3.39 8,9.72 2.5,5.46 3.1,11 3.1,15.18 z"
           inkscape:connector-curvature="0"
           style="fill:#000000;stroke-width:0" /><polyline
           id="polyline1486"
           points="1067,342 1188.7,342 1188.7,344.04 1067,344.04 "
           style="fill:#000000;fill-rule:nonzero;stroke-width:0" /><path
           id="path1488"
           d="m 1093.6,326.61 v 0.12 0.13 0.12 0.13 0.12 l -0.1,0.12 v 0.12 l -0.1,0.12 v 0.11 l -0.1,0.12 v 0.11 l -0.1,0.11 -0.1,0.1 v 0.1 l -0.1,0.1 -0.1,0.09 -0.1,0.09 -0.1,0.09 -0.1,0.08 -0.1,0.08 -0.1,0.07 -0.1,0.07 -0.1,0.06 -0.2,0.06 -0.1,0.05 -0.1,0.04 -0.1,0.04 -0.2,0.03 -0.1,0.03 -0.1,0.02 -0.2,0.01 h -0.1 c -1.7,0 -2.7,-1.39 -2.7,-2.64 0,-1.34 1.1,-2.64 2.6,-2.64 1.7,0 2.7,1.39 2.7,2.64 z"
           inkscape:connector-curvature="0"
           style="fill:#000000;stroke-width:0" /><path
           id="path1490"
           d="m 1082.2,300.06 0.2,0.27 0.3,0.26 0.2,0.24 0.2,0.24 0.3,0.23 0.2,0.23 0.2,0.21 0.2,0.21 0.2,0.2 0.2,0.2 0.2,0.19 0.2,0.18 0.2,0.18 0.1,0.17 0.4,0.33 0.3,0.32 0.4,0.3 0.3,0.3 0.3,0.28 0.7,0.56 0.3,0.29 0.3,0.28 c 0,0.05 3.1,2.69 4.9,4.49 4.7,4.64 5.8,7.03 5.8,7.22 0,0.5 -0.4,0.5 -0.5,0.5 -0.4,0 -0.5,-0.1 -0.8,-0.55 -1.5,-2.39 -2.5,-3.19 -3.7,-3.19 -1.2,0 -1.8,0.75 -2.6,1.6 -0.9,1.15 -1.7,2.14 -3.4,2.14 -3.7,0 -6,-4.63 -6,-5.67 0,-0.25 0.1,-0.55 0.6,-0.55 0.4,0 0.5,0.25 0.6,0.55 1,2.29 3.9,2.34 4.3,2.34 1,0 2,-0.36 3.1,-0.75 2,-0.75 2.5,-0.75 3.8,-0.75 -1.8,-2.14 -5.9,-5.73 -6.9,-6.53 l -4.5,-4.17 c -3.4,-3.35 -5.1,-6.19 -5.1,-6.53 0,-0.5 0.5,-0.5 0.6,-0.5 0.4,0 0.5,0.09 0.8,0.64 1.1,1.75 2.6,3.09 4.2,3.09 1.2,0 1.7,-0.45 2.9,-1.89 0.9,-1.05 1.8,-1.84 3.2,-1.84 4.9,0 7.8,6.32 7.8,7.67 0,0.25 -0.2,0.5 -0.6,0.5 -0.4,0 -0.5,-0.3 -0.7,-0.66 -1.1,-3.23 -4.3,-4.17 -6,-4.17 -0.9,0 -1.8,0.3 -2.9,0.64 -1.7,0.64 -2.4,0.84 -3.5,0.84 -0.1,0 -0.9,0 -1.3,-0.14 z"
           inkscape:connector-curvature="0"
           style="fill:#000000;stroke-width:0" /><path
           id="path1492"
           d="m 1117.4,283.97 v 0.03 0.02 0.02 0.01 0.01 l -0.1,0.02 v 0.02 0.01 0.02 0.02 0.03 0.02 0.02 0.03 l -0.1,0.03 v 0.03 0.04 0.03 l -0.1,0.02 v 0.02 0.02 0.02 0.03 l -0.1,0.02 v 0.02 0.03 0.02 0.03 l -0.1,0.02 v 0.03 0.03 0.03 l -0.1,0.03 v 0.03 0.03 l -0.1,0.03 v 0.04 0.03 l -0.1,0.04 v 0.04 0.03 l -0.1,0.04 c -6.2,6.28 -7.8,15.69 -7.8,23.32 0,8.67 1.9,17.34 8,23.56 0.7,0.61 0.7,0.7 0.7,0.86 0,0.34 -0.2,0.48 -0.5,0.48 -0.5,0 -5,-3.37 -8,-9.7 -2.5,-5.49 -3.1,-11.02 -3.1,-15.2 0,-3.9 0.6,-9.91 3.3,-15.55 3,-6.13 7.3,-9.36 7.8,-9.36 0.3,0 0.5,0.14 0.5,0.5 z"
           inkscape:connector-curvature="0"
           style="fill:#000000;stroke-width:0" /><path
           id="path1494"
           d="m 1130.5,315.84 h 4.6 c 1,0 1.5,0 1.5,1 0,0.55 -0.5,0.55 -1.4,0.55 h -4.4 c 1.8,7.08 2.1,8.08 2.1,8.38 0,0.84 -0.6,1.34 -1.4,1.34 -0.2,0 -1.6,-0.05 -2,-1.8 l -2,-7.92 h -4.7 c -1,0 -1.5,0 -1.5,-0.94 0,-0.61 0.4,-0.61 1.4,-0.61 h 4.4 c -3.6,-14.14 -3.8,-14.98 -3.8,-15.89 0,-2.68 1.9,-4.57 4.6,-4.57 5.1,0 7.9,7.26 7.9,7.67 0,0.5 -0.4,0.5 -0.6,0.5 -0.4,0 -0.5,-0.16 -0.7,-0.71 -2.2,-5.17 -4.8,-6.37 -6.5,-6.37 -1,0 -1.5,0.65 -1.5,2.3 0,1.18 0.1,1.54 0.3,2.39 z"
           inkscape:connector-curvature="0"
           style="fill:#000000;stroke-width:0" /><path
           id="path1496"
           d="m 1156.2,299.59 v 0.71 0.68 l -0.1,0.66 v 0.64 l -0.1,0.62 v 0.59 l -0.1,0.58 -0.1,0.56 -0.2,0.55 -0.1,0.53 -0.2,0.51 -0.2,0.5 -0.2,0.49 -0.2,0.48 -0.3,0.47 -0.1,0.23 -0.2,0.23 c -1.1,1.61 -3.2,3 -6,3 v -0.98 c 1.9,0 3.7,-1.14 4.3,-3.18 0.6,-1.87 0.6,-4.39 0.6,-7.42 0,-2.58 0,-5.15 -0.4,-7.34 -0.7,-3.17 -3.1,-3.94 -4.5,-3.94 v 0 c -1.6,0 -3.7,0.94 -4.4,3.8 -0.5,2.05 -0.5,4.9 -0.5,7.48 0,2.55 0,5.21 0.5,7.11 0.7,2.75 3,3.49 4.4,3.49 v 0.98 c -8.1,0 -8.1,-9.51 -8.1,-12.03 0,-2.5 0,-11.81 8.1,-11.81 8.1,0 8.1,9.31 8.1,11.81 z"
           inkscape:connector-curvature="0"
           style="fill:#000000;stroke-width:0" /><path
           id="path1498"
           d="m 1175,308.38 v 0.37 0.38 0.39 0.41 0.84 l -0.1,0.88 -0.1,0.92 -0.1,0.95 -0.1,0.98 -0.2,1 -0.2,1.02 -0.2,1.04 -0.3,1.05 -0.3,1.06 -0.3,1.06 -0.4,1.07 -0.2,0.53 -0.3,0.53 -0.2,0.53 -0.2,0.53 c -3,6.13 -7.3,9.36 -7.8,9.36 -0.3,0 -0.5,-0.19 -0.5,-0.48 0,-0.16 0,-0.25 0.9,-1.16 4.9,-4.92 7.8,-12.84 7.8,-23.26 0,-8.52 -1.9,-17.29 -8.1,-23.57 -0.6,-0.59 -0.6,-0.7 -0.6,-0.84 0,-0.3 0.2,-0.5 0.5,-0.5 0.5,0 4.9,3.39 7.9,9.72 2.5,5.47 3.1,11 3.1,15.19 z"
           inkscape:connector-curvature="0"
           style="fill:#000000;stroke-width:0" /><path
           id="path1500"
           d="m 1215.2,342.57 v 0.14 0.13 0.13 l -0.1,0.13 v 0.13 0.13 l -0.1,0.12 v 0.12 l -0.1,0.12 v 0.11 l -0.1,0.11 -0.1,0.11 v 0.1 l -0.1,0.1 -0.1,0.1 -0.1,0.09 -0.1,0.09 -0.1,0.08 -0.1,0.08 -0.1,0.07 -0.1,0.07 -0.1,0.07 -0.1,0.05 -0.1,0.06 -0.1,0.04 -0.2,0.05 -0.1,0.03 -0.1,0.03 -0.1,0.02 -0.2,0.02 -0.1,0.01 h -0.1 c -1.5,0 -2.7,-1.18 -2.7,-2.64 0,-1.43 1.2,-2.64 2.7,-2.64 1.4,0 2.6,1.21 2.6,2.64 z"
           inkscape:connector-curvature="0"
           style="fill:#000000;stroke-width:0" /><path
           id="path1502"
           d="m 1250.1,348.76 -0.2,-0.01 -0.1,-0.01 -0.1,-0.02 -0.1,-0.03 -0.1,-0.03 -0.2,-0.04 -0.1,-0.04 -0.1,-0.04 -0.1,-0.05 -0.1,-0.06 -0.1,-0.06 -0.1,-0.06 -0.1,-0.07 -0.1,-0.07 -0.1,-0.07 v -0.08 l -0.1,-0.08 -0.1,-0.08 -0.1,-0.08 v -0.09 l -0.1,-0.09 v -0.09 l -0.1,-0.1 v -0.09 l -0.1,-0.1 v -0.1 -0.1 l -0.1,-0.1 v -0.1 -0.1 -0.11 -0.1 c 0,-0.7 0.4,-1.44 1.5,-1.44 1.1,0 2.3,0.85 2.3,2.79 0,2.25 -2.1,4.28 -5.9,4.28 -6.6,0 -8.4,-5.08 -8.4,-7.27 0,-3.89 3.7,-4.64 5.1,-4.94 2.6,-0.5 5.2,-1.04 5.2,-3.78 0,-1.29 -1.2,-5.48 -7.1,-5.48 -0.7,0 -4.6,0 -5.7,2.64 1.9,-0.25 3.1,1.25 3.1,2.64 0,1.14 -0.8,1.75 -1.8,1.75 -1.3,0 -2.8,-1.05 -2.8,-3.3 0,-2.84 2.8,-4.83 7.1,-4.83 8.1,0 10,6.04 10,8.27 0,1.8 -0.9,3.05 -1.5,3.64 -1.4,1.39 -2.8,1.64 -5,2.09 -1.8,0.39 -3.8,0.75 -3.8,2.99 0,1.45 1.2,4.48 5.6,4.48 1.2,0 3.7,-0.34 4.5,-2.28 z"
           inkscape:connector-curvature="0"
           style="fill:#000000;stroke-width:0" /><path
           id="path1504"
           d="m 1285.3,341.57 h 13.9 c 0.7,0 1.6,0 1.6,1 0,1 -0.9,1 -1.6,1 h -13.9 v 13.96 c 0,0.68 0,1.64 -1,1.64 -1,0 -1,-0.96 -1,-1.64 v -13.96 h -14 c -0.6,0 -1.6,0 -1.6,-1 0,-1 1,-1 1.6,-1 h 14 v -13.93 c 0,-0.71 0,-1.66 1,-1.66 1,0 1,0.95 1,1.66 z"
           inkscape:connector-curvature="0"
           style="fill:#000000;stroke-width:0" /><path
           id="path1506"
           d="m 1321.5,334.26 0.2,0.27 0.2,0.25 0.3,0.25 0.2,0.24 0.2,0.23 0.2,0.23 0.3,0.21 0.2,0.21 0.2,0.2 0.2,0.2 0.2,0.19 0.1,0.18 0.2,0.18 0.2,0.17 0.4,0.33 0.3,0.32 0.3,0.3 0.4,0.3 0.3,0.28 0.6,0.56 0.4,0.29 0.3,0.28 c 0,0.05 3.1,2.69 4.9,4.49 4.7,4.64 5.8,7.03 5.8,7.22 0,0.5 -0.5,0.5 -0.5,0.5 -0.4,0 -0.5,-0.1 -0.8,-0.55 -1.5,-2.39 -2.5,-3.19 -3.7,-3.19 -1.2,0 -1.8,0.75 -2.6,1.6 -0.9,1.15 -1.8,2.14 -3.4,2.14 -3.8,0 -6,-4.63 -6,-5.68 0,-0.25 0.1,-0.54 0.6,-0.54 0.4,0 0.5,0.25 0.6,0.54 0.9,2.3 3.8,2.35 4.2,2.35 1.1,0 2,-0.36 3.2,-0.75 2,-0.75 2.5,-0.75 3.8,-0.75 -1.8,-2.14 -6,-5.74 -6.9,-6.53 l -4.5,-4.17 c -3.4,-3.35 -5.1,-6.19 -5.1,-6.54 0,-0.5 0.5,-0.5 0.6,-0.5 0.4,0 0.5,0.1 0.8,0.64 1.1,1.75 2.6,3.1 4.2,3.1 1.2,0 1.6,-0.45 2.9,-1.89 0.8,-1.05 1.7,-1.85 3.2,-1.85 4.9,0 7.8,6.33 7.8,7.68 0,0.25 -0.2,0.5 -0.6,0.5 -0.4,0 -0.5,-0.3 -0.7,-0.66 -1.1,-3.23 -4.3,-4.17 -6,-4.17 -1,0 -1.9,0.29 -2.9,0.64 -1.7,0.64 -2.5,0.84 -3.5,0.84 -0.1,0 -0.9,0 -1.3,-0.14 z"
           inkscape:connector-curvature="0"
           style="fill:#000000;stroke-width:0" /><path
           id="path1508"
           d="m 1356.6,318.17 v 0.02 0.03 0.01 0.02 0.01 0.02 0.02 0.01 0.02 0.02 0.03 0.02 l -0.1,0.02 v 0.03 0.03 0.03 0.04 l -0.1,0.03 v 0.02 0.02 0.02 0.02 l -0.1,0.02 v 0.03 0.02 0.02 0.03 l -0.1,0.03 v 0.02 0.03 0.03 l -0.1,0.03 v 0.03 0.03 l -0.1,0.03 v 0.03 0.04 l -0.1,0.03 v 0.04 0.03 l -0.1,0.04 v 0.04 c -6.2,6.28 -7.8,15.69 -7.8,23.31 0,8.68 1.9,17.35 8,23.57 0.6,0.61 0.6,0.7 0.6,0.86 0,0.34 -0.2,0.48 -0.4,0.48 -0.5,0 -5,-3.37 -8,-9.7 -2.5,-5.49 -3.1,-11.02 -3.1,-15.21 0,-3.89 0.5,-9.9 3.3,-15.54 2.9,-6.13 7.3,-9.36 7.8,-9.36 0.2,0 0.4,0.14 0.4,0.5 z"
           inkscape:connector-curvature="0"
           style="fill:#000000;stroke-width:0" /><path
           id="path1510"
           d="m 1369.7,350.04 h 4.7 c 1,0 1.5,0 1.5,1 0,0.55 -0.5,0.55 -1.4,0.55 h -4.4 c 1.8,7.08 2.1,8.08 2.1,8.37 0,0.85 -0.6,1.35 -1.5,1.35 -0.1,0 -1.5,-0.05 -2,-1.8 l -1.9,-7.92 h -4.7 c -1,0 -1.5,0 -1.5,-0.94 0,-0.61 0.4,-0.61 1.4,-0.61 h 4.4 c -3.6,-14.14 -3.8,-14.98 -3.8,-15.89 0,-2.69 1.9,-4.58 4.6,-4.58 5.1,0 7.9,7.27 7.9,7.68 0,0.5 -0.4,0.5 -0.6,0.5 -0.4,0 -0.5,-0.16 -0.7,-0.71 -2.2,-5.17 -4.8,-6.37 -6.5,-6.37 -1.1,0 -1.5,0.65 -1.5,2.29 0,1.19 0,1.55 0.2,2.4 z"
           inkscape:connector-curvature="0"
           style="fill:#000000;stroke-width:0" /><path
           id="path1512"
           d="m 1395.5,333.79 v 0.71 l -0.1,0.68 v 0.66 0.64 l -0.1,0.62 -0.1,0.59 -0.1,0.58 -0.1,0.56 -0.1,0.55 -0.1,0.53 -0.2,0.51 -0.2,0.5 -0.2,0.49 -0.2,0.48 -0.3,0.47 -0.2,0.23 -0.1,0.23 c -1.1,1.61 -3.2,3 -6,3 v -0.98 c 1.9,0 3.7,-1.14 4.3,-3.18 0.6,-1.87 0.6,-4.39 0.6,-7.42 0,-2.58 0,-5.15 -0.5,-7.34 -0.7,-3.17 -3,-3.94 -4.4,-3.94 v 0 c -1.6,0 -3.7,0.94 -4.5,3.8 -0.4,2.04 -0.4,4.9 -0.4,7.48 0,2.55 0,5.21 0.5,7.11 0.7,2.75 2.9,3.49 4.4,3.49 v 0.98 c -8.1,0 -8.1,-9.52 -8.1,-12.03 0,-2.5 0,-11.81 8.1,-11.81 8.1,0 8.1,9.31 8.1,11.81 z"
           inkscape:connector-curvature="0"
           style="fill:#000000;stroke-width:0" /><path
           id="path1514"
           d="m 1414.2,342.57 v 0.37 0.39 0.39 0.41 l -0.1,0.84 v 0.88 l -0.1,0.92 -0.1,0.95 -0.2,0.98 -0.1,1 -0.2,1.02 -0.3,1.04 -0.2,1.05 -0.3,1.06 -0.4,1.06 -0.4,1.07 -0.2,0.53 -0.2,0.53 -0.2,0.53 -0.3,0.53 c -3,6.13 -7.3,9.36 -7.8,9.36 -0.3,0 -0.5,-0.19 -0.5,-0.48 0,-0.16 0,-0.25 1,-1.16 4.9,-4.92 7.7,-12.84 7.7,-23.27 0,-8.51 -1.8,-17.28 -8,-23.56 -0.7,-0.59 -0.7,-0.7 -0.7,-0.84 0,-0.3 0.2,-0.5 0.5,-0.5 0.5,0 5,3.39 8,9.72 2.5,5.47 3.1,11 3.1,15.18 z"
           inkscape:connector-curvature="0"
           style="fill:#000000;stroke-width:0" /></g>    </g>
    <circle
       id="path859-7"
       style="fill:#000000;stroke:none"
       cx="1384.4155"
       cy="3164.8389"
       r="5.1023617"
       transform="rotate(-50.390563)" />
    <path
       style="opacity:1;vector-effect:none;fill:none;fill-opacity:1;stroke:#df0000;stroke-width:3.40199995;stroke-linecap:butt;stroke-linejoin:miter;stroke-miterlimit:4;stroke-dasharray:none;stroke-dashoffset:0;stroke-opacity:1;marker-end:url(#Arrow1Mend-3)"
       d="M 3320.95,951.46691 3151.1145,1072.1206"
       id="path861-5"
       inkscape:connector-curvature="0" />
    <g
       id="g1720"
       transform="matrix(0.18417653,0,0,0.18417653,2466.5663,886.03409)"
       style="fill:#cc0000">
      <g
         word-spacing="normal"
         letter-spacing="normal"
         font-size-adjust="none"
         font-stretch="normal"
         font-weight="normal"
         font-variant="normal"
         font-style="normal"
         stroke-miterlimit="10.433"
         xml:space="preserve"
         transform="matrix(3.6571429,0,0,-3.6571429,-640,1920)"
         id="g1718"
         style="font-style:normal;font-variant:normal;font-weight:normal;font-stretch:normal;letter-spacing:normal;word-spacing:normal;text-anchor:start;fill:#cc0000;fill-opacity:1;fill-rule:evenodd;stroke:#000000;stroke-linecap:butt;stroke-linejoin:miter;stroke-miterlimit:10.43299961;stroke-dasharray:none;stroke-dashoffset:0;stroke-opacity:1"><path
           id="path1700"
           d="m 1145.8,377.13 v 0.12 0.13 0.12 0.13 0.12 l -0.1,0.12 v 0.12 l -0.1,0.12 v 0.11 l -0.1,0.12 v 0.11 l -0.1,0.11 -0.1,0.1 v 0.1 l -0.1,0.1 -0.1,0.09 -0.1,0.09 -0.1,0.09 -0.1,0.08 -0.1,0.08 -0.1,0.07 -0.1,0.07 -0.1,0.06 -0.2,0.06 -0.1,0.05 -0.1,0.04 -0.1,0.04 -0.2,0.03 -0.1,0.03 -0.1,0.02 -0.2,0.01 h -0.1 c -1.7,0 -2.7,-1.39 -2.7,-2.64 0,-1.34 1.2,-2.64 2.7,-2.64 1.6,0 2.6,1.39 2.6,2.64 z"
           inkscape:connector-curvature="0"
           style="fill:#cc0000;stroke-width:0" /><path
           id="path1702"
           d="m 1134.4,350.58 0.2,0.27 0.3,0.26 0.2,0.24 0.2,0.24 0.3,0.23 0.2,0.23 0.2,0.21 0.2,0.21 0.2,0.2 0.2,0.2 0.2,0.19 0.2,0.18 0.2,0.18 0.1,0.17 0.4,0.33 0.3,0.32 0.4,0.3 0.3,0.3 0.3,0.28 0.7,0.56 0.3,0.29 0.3,0.28 c 0,0.05 3.1,2.69 4.9,4.49 4.7,4.64 5.8,7.03 5.8,7.22 0,0.5 -0.4,0.5 -0.5,0.5 -0.4,0 -0.5,-0.1 -0.8,-0.55 -1.5,-2.39 -2.5,-3.19 -3.7,-3.19 -1.2,0 -1.8,0.75 -2.6,1.6 -0.9,1.15 -1.7,2.14 -3.4,2.14 -3.7,0 -6,-4.63 -6,-5.67 0,-0.25 0.1,-0.55 0.6,-0.55 0.4,0 0.5,0.25 0.6,0.55 1,2.29 3.9,2.34 4.3,2.34 1,0 2,-0.36 3.1,-0.75 2,-0.75 2.6,-0.75 3.8,-0.75 -1.7,-2.14 -5.9,-5.74 -6.9,-6.53 l -4.5,-4.17 c -3.3,-3.35 -5.1,-6.19 -5.1,-6.54 0,-0.5 0.5,-0.5 0.6,-0.5 0.4,0 0.5,0.1 0.8,0.65 1.1,1.75 2.6,3.09 4.2,3.09 1.2,0 1.7,-0.45 2.9,-1.89 0.9,-1.05 1.8,-1.85 3.2,-1.85 4.9,0 7.8,6.33 7.8,7.68 0,0.25 -0.2,0.5 -0.6,0.5 -0.4,0 -0.5,-0.3 -0.7,-0.66 -1.1,-3.23 -4.3,-4.17 -5.9,-4.17 -1,0 -1.9,0.3 -3,0.64 -1.7,0.64 -2.4,0.84 -3.5,0.84 -0.1,0 -0.9,0 -1.3,-0.14 z"
           inkscape:connector-curvature="0"
           style="fill:#cc0000;stroke-width:0" /><path
           id="path1704"
           d="m 1169.6,334.49 v 0.02 0.03 0.01 0.02 0.01 l -0.1,0.02 v 0.02 0.01 0.02 0.02 0.03 0.02 0.02 0.03 l -0.1,0.03 v 0.03 0.04 0.03 l -0.1,0.02 v 0.02 0.02 0.02 0.02 l -0.1,0.03 v 0.02 0.02 0.03 0.03 l -0.1,0.02 v 0.03 0.03 l -0.1,0.03 v 0.03 0.03 0.03 l -0.1,0.03 v 0.04 0.03 l -0.1,0.04 v 0.04 l -0.1,0.03 v 0.04 c -6.2,6.28 -7.8,15.69 -7.8,23.31 0,8.68 1.9,17.35 8,23.57 0.7,0.61 0.7,0.7 0.7,0.86 0,0.34 -0.2,0.48 -0.5,0.48 -0.5,0 -5,-3.37 -7.9,-9.7 -2.6,-5.49 -3.2,-11.02 -3.2,-15.21 0,-3.89 0.6,-9.9 3.3,-15.54 3,-6.13 7.3,-9.36 7.8,-9.36 0.3,0 0.5,0.14 0.5,0.5 z"
           inkscape:connector-curvature="0"
           style="fill:#cc0000;stroke-width:0" /><path
           id="path1706"
           d="m 1182.7,366.36 h 4.6 c 1,0 1.5,0 1.5,1 0,0.55 -0.5,0.55 -1.4,0.55 h -4.3 c 1.7,7.08 2,8.08 2,8.38 0,0.84 -0.6,1.34 -1.4,1.34 -0.2,0 -1.6,-0.05 -2,-1.8 l -2,-7.92 h -4.7 c -1,0 -1.5,0 -1.5,-0.94 0,-0.61 0.4,-0.61 1.4,-0.61 h 4.4 c -3.6,-14.14 -3.8,-14.98 -3.8,-15.89 0,-2.68 1.9,-4.58 4.6,-4.58 5.1,0 7.9,7.27 7.9,7.68 0,0.5 -0.4,0.5 -0.6,0.5 -0.4,0 -0.5,-0.16 -0.7,-0.71 -2.1,-5.17 -4.8,-6.37 -6.5,-6.37 -1,0 -1.5,0.65 -1.5,2.3 0,1.18 0.1,1.54 0.3,2.39 z"
           inkscape:connector-curvature="0"
           style="fill:#cc0000;stroke-width:0" /><path
           id="path1708"
           d="m 1208.4,349.99 v 0.71 0.68 l -0.1,0.66 v 0.64 l -0.1,0.62 v 0.59 l -0.1,0.58 -0.1,0.56 -0.2,0.55 -0.1,0.52 -0.2,0.52 -0.2,0.5 -0.2,0.49 -0.2,0.48 -0.3,0.47 -0.1,0.23 -0.2,0.23 c -1.1,1.61 -3.2,3 -6,3 -8.1,0 -8.1,-9.52 -8.1,-12.03 0,-2.5 0,-11.81 8.1,-11.81 v 0.98 c -1.6,0 -3.7,0.94 -4.4,3.8 -0.5,2.04 -0.5,4.9 -0.5,7.48 0,2.55 0,5.2 0.5,7.11 0.7,2.75 3,3.49 4.4,3.49 1.9,0 3.7,-1.15 4.3,-3.18 0.6,-1.87 0.6,-4.39 0.6,-7.42 0,-2.58 0,-5.15 -0.4,-7.34 -0.7,-3.17 -3.1,-3.94 -4.5,-3.94 v 0 -0.98 c 8.1,0 8.1,9.31 8.1,11.81 z"
           inkscape:connector-curvature="0"
           style="fill:#cc0000;stroke-width:0" /><path
           id="path1710"
           d="m 1244.2,357.89 h 14 c 0.6,0 1.6,0 1.6,1 0,1 -1,1 -1.6,1 h -14 v 13.96 c 0,0.69 0,1.64 -1,1.64 -0.9,0 -0.9,-0.95 -0.9,-1.64 v -13.96 h -14 c -0.7,0 -1.6,0 -1.6,-1 0,-1 0.9,-1 1.6,-1 h 14 v -13.93 c 0,-0.71 0,-1.66 0.9,-1.66 1,0 1,0.95 1,1.66 z"
           inkscape:connector-curvature="0"
           style="fill:#cc0000;stroke-width:0" /><path
           id="path1712"
           d="m 1295.7,381.22 v 0.06 l -0.1,0.06 v 0.05 0.05 0.05 l -0.1,0.05 v 0.05 0.04 l -0.1,0.04 v 0.04 0.04 0.04 l -0.1,0.03 v 0.03 0.03 l -0.1,0.03 v 0.02 0.03 l -0.1,0.02 v 0.02 0.02 l -0.1,0.02 v 0.01 l -0.1,0.01 v 0.02 l -0.1,0.01 v 0 l -0.1,0.01 -0.1,0.01 v 0 h -0.1 -0.1 v 0 c -0.8,0 -0.9,-0.25 -1.3,-0.89 l -0.3,-4.09 13.4,-26.91 h -26.9 l 13.5,26.91 0.3,4.09 -16.8,-33.78 c -0.3,-0.45 -0.3,-0.55 -0.3,-0.59 0,-0.41 0.3,-0.41 1.1,-0.41 h 34.6 c 0.8,0 1.1,0 1.1,0.41 0,0.04 0,0.14 -0.3,0.59 z"
           inkscape:connector-curvature="0"
           style="fill:#cc0000;stroke-width:0" /><path
           id="path1714"
           d="m 1325.5,366.36 h 4.7 c 0.9,0 1.4,0 1.4,1 0,0.55 -0.5,0.55 -1.4,0.55 h -4.3 c 1.8,7.08 2,8.08 2,8.38 0,0.84 -0.6,1.34 -1.4,1.34 -0.2,0 -1.6,-0.05 -2,-1.8 l -2,-7.92 h -4.7 c -1,0 -1.5,0 -1.5,-0.94 0,-0.61 0.5,-0.61 1.5,-0.61 h 4.3 c -3.6,-14.14 -3.8,-14.98 -3.8,-15.89 0,-2.68 1.9,-4.58 4.6,-4.58 5.1,0 7.9,7.27 7.9,7.68 0,0.5 -0.4,0.5 -0.6,0.5 -0.4,0 -0.4,-0.16 -0.7,-0.71 -2.1,-5.17 -4.8,-6.37 -6.5,-6.37 -1,0 -1.5,0.65 -1.5,2.3 0,1.18 0.1,1.54 0.3,2.39 z"
           inkscape:connector-curvature="0"
           style="fill:#cc0000;stroke-width:0" /><path
           id="path1716"
           d="m 1347.6,358.89 v 0.38 0.38 0.39 0.41 l -0.1,0.84 v 0.88 l -0.1,0.92 -0.1,0.95 -0.2,0.98 -0.1,1 -0.2,1.02 -0.3,1.04 -0.2,1.05 -0.3,1.06 -0.4,1.06 -0.4,1.07 -0.2,0.53 -0.2,0.53 -0.2,0.53 -0.3,0.53 c -3,6.13 -7.3,9.36 -7.8,9.36 -0.3,0 -0.5,-0.19 -0.5,-0.48 0,-0.16 0,-0.25 1,-1.16 4.9,-4.92 7.7,-12.84 7.7,-23.27 0,-8.51 -1.8,-17.28 -8,-23.56 -0.7,-0.59 -0.7,-0.7 -0.7,-0.84 0,-0.3 0.2,-0.5 0.5,-0.5 0.5,0 5,3.39 8,9.72 2.5,5.47 3.1,11 3.1,15.18 z"
           inkscape:connector-curvature="0"
           style="fill:#cc0000;stroke-width:0" /></g>    </g>
    <g
       id="g1999"
       transform="matrix(0.16725402,0,0,0.16725402,2767.1247,848.25332)"
       style="fill:#000000">
      <g
         word-spacing="normal"
         letter-spacing="normal"
         font-size-adjust="none"
         font-stretch="normal"
         font-weight="normal"
         font-variant="normal"
         font-style="normal"
         stroke-miterlimit="10.433"
         xml:space="preserve"
         transform="matrix(3.6571429,0,0,-3.6571429,-640,1920)"
         id="g1997"
         style="font-style:normal;font-variant:normal;font-weight:normal;font-stretch:normal;letter-spacing:normal;word-spacing:normal;text-anchor:start;fill:#000000;fill-opacity:1;fill-rule:evenodd;stroke:#000000;stroke-linecap:butt;stroke-linejoin:miter;stroke-miterlimit:10.43299961;stroke-dasharray:none;stroke-dashoffset:0;stroke-opacity:1"><path
           id="path1981"
           d="m 1134.4,350.58 0.2,0.27 0.3,0.26 0.2,0.24 0.2,0.24 0.3,0.23 0.2,0.23 0.2,0.21 0.2,0.21 0.2,0.2 0.2,0.2 0.2,0.19 0.2,0.18 0.2,0.18 0.1,0.17 0.4,0.33 0.3,0.32 0.4,0.3 0.3,0.3 0.3,0.28 0.7,0.56 0.3,0.29 0.3,0.28 c 0,0.05 3.1,2.69 4.9,4.49 4.7,4.64 5.8,7.03 5.8,7.22 0,0.5 -0.4,0.5 -0.5,0.5 -0.4,0 -0.5,-0.1 -0.8,-0.55 -1.5,-2.39 -2.5,-3.19 -3.7,-3.19 -1.2,0 -1.8,0.75 -2.6,1.6 -0.9,1.15 -1.7,2.14 -3.4,2.14 -3.7,0 -6,-4.63 -6,-5.67 0,-0.25 0.1,-0.55 0.6,-0.55 0.4,0 0.5,0.25 0.6,0.55 1,2.29 3.9,2.34 4.3,2.34 1,0 2,-0.36 3.1,-0.75 2,-0.75 2.6,-0.75 3.8,-0.75 -1.7,-2.14 -5.9,-5.74 -6.9,-6.53 l -4.5,-4.17 c -3.3,-3.35 -5.1,-6.19 -5.1,-6.54 0,-0.5 0.5,-0.5 0.6,-0.5 0.4,0 0.5,0.1 0.8,0.65 1.1,1.75 2.6,3.09 4.2,3.09 1.2,0 1.7,-0.45 2.9,-1.89 0.9,-1.05 1.8,-1.85 3.2,-1.85 4.9,0 7.8,6.33 7.8,7.68 0,0.25 -0.2,0.5 -0.6,0.5 -0.4,0 -0.5,-0.3 -0.7,-0.66 -1.1,-3.23 -4.3,-4.17 -5.9,-4.17 -1,0 -1.9,0.3 -3,0.64 -1.7,0.64 -2.4,0.84 -3.5,0.84 -0.1,0 -0.9,0 -1.3,-0.14 z"
           inkscape:connector-curvature="0"
           style="fill:#000000;stroke-width:0" /><path
           id="path1983"
           d="m 1169.6,334.49 v 0.02 0.03 0.01 0.02 0.01 l -0.1,0.02 v 0.02 0.01 0.02 0.02 0.03 0.02 0.02 0.03 l -0.1,0.03 v 0.03 0.04 0.03 l -0.1,0.02 v 0.02 0.02 0.02 0.02 l -0.1,0.03 v 0.02 0.02 0.03 0.03 l -0.1,0.02 v 0.03 0.03 0.03 l -0.1,0.03 v 0.03 0.03 l -0.1,0.03 v 0.04 0.03 l -0.1,0.04 v 0.04 0.03 l -0.1,0.04 c -6.2,6.28 -7.8,15.69 -7.8,23.31 0,8.68 1.9,17.35 8,23.57 0.7,0.61 0.7,0.7 0.7,0.86 0,0.34 -0.2,0.48 -0.5,0.48 -0.5,0 -5,-3.37 -7.9,-9.7 -2.6,-5.49 -3.2,-11.02 -3.2,-15.21 0,-3.89 0.6,-9.9 3.3,-15.54 3,-6.13 7.3,-9.36 7.8,-9.36 0.3,0 0.5,0.14 0.5,0.5 z"
           inkscape:connector-curvature="0"
           style="fill:#000000;stroke-width:0" /><path
           id="path1985"
           d="m 1182.7,366.36 h 4.6 c 1,0 1.5,0 1.5,1 0,0.55 -0.5,0.55 -1.4,0.55 h -4.3 c 1.7,7.08 2,8.08 2,8.38 0,0.84 -0.6,1.34 -1.4,1.34 -0.2,0 -1.6,-0.05 -2,-1.8 l -2,-7.92 h -4.7 c -1,0 -1.5,0 -1.5,-0.94 0,-0.61 0.4,-0.61 1.4,-0.61 h 4.4 c -3.6,-14.14 -3.8,-14.98 -3.8,-15.89 0,-2.68 1.9,-4.58 4.6,-4.58 5.1,0 7.9,7.27 7.9,7.68 0,0.5 -0.4,0.5 -0.6,0.5 -0.4,0 -0.5,-0.16 -0.7,-0.71 -2.1,-5.17 -4.8,-6.37 -6.5,-6.37 -1,0 -1.5,0.65 -1.5,2.3 0,1.18 0.1,1.54 0.3,2.39 z"
           inkscape:connector-curvature="0"
           style="fill:#000000;stroke-width:0" /><path
           id="path1987"
           d="m 1208.4,349.99 v 0.71 0.68 l -0.1,0.66 v 0.64 l -0.1,0.62 v 0.59 l -0.1,0.58 -0.1,0.56 -0.2,0.55 -0.1,0.52 -0.2,0.52 -0.2,0.5 -0.2,0.49 -0.2,0.48 -0.3,0.47 -0.1,0.23 -0.2,0.23 c -1.1,1.61 -3.2,3 -6,3 -8.1,0 -8.1,-9.52 -8.1,-12.03 0,-2.5 0,-11.81 8.1,-11.81 v 0.98 c -1.6,0 -3.7,0.94 -4.4,3.8 -0.5,2.04 -0.5,4.9 -0.5,7.48 0,2.55 0,5.2 0.5,7.11 0.7,2.75 3,3.49 4.4,3.49 1.9,0 3.7,-1.15 4.3,-3.18 0.6,-1.87 0.6,-4.39 0.6,-7.42 0,-2.58 0,-5.15 -0.4,-7.34 -0.7,-3.17 -3.1,-3.94 -4.5,-3.94 v 0 -0.98 c 8.1,0 8.1,9.31 8.1,11.81 z"
           inkscape:connector-curvature="0"
           style="fill:#000000;stroke-width:0" /><path
           id="path1989"
           d="m 1244.2,357.89 h 14 c 0.6,0 1.6,0 1.6,1 0,1 -1,1 -1.6,1 h -14 v 13.96 c 0,0.69 0,1.64 -1,1.64 -0.9,0 -0.9,-0.95 -0.9,-1.64 v -13.96 h -14 c -0.7,0 -1.6,0 -1.6,-1 0,-1 0.9,-1 1.6,-1 h 14 v -13.93 c 0,-0.71 0,-1.66 0.9,-1.66 1,0 1,0.95 1,1.66 z"
           inkscape:connector-curvature="0"
           style="fill:#000000;stroke-width:0" /><path
           id="path1991"
           d="m 1295.7,381.22 v 0.06 l -0.1,0.06 v 0.05 0.05 0.05 l -0.1,0.05 v 0.05 0.04 l -0.1,0.04 v 0.04 0.04 0.04 l -0.1,0.03 v 0.03 0.03 l -0.1,0.03 v 0.02 0.03 l -0.1,0.02 v 0.02 0.02 l -0.1,0.02 v 0.01 l -0.1,0.01 v 0.02 l -0.1,0.01 v 0 l -0.1,0.01 -0.1,0.01 v 0 h -0.1 -0.1 v 0 c -0.8,0 -0.9,-0.25 -1.3,-0.89 l -0.3,-4.09 13.4,-26.91 h -26.9 l 13.5,26.91 0.3,4.09 -16.8,-33.78 c -0.3,-0.45 -0.3,-0.55 -0.3,-0.59 0,-0.41 0.3,-0.41 1.1,-0.41 h 34.6 c 0.8,0 1.1,0 1.1,0.41 0,0.04 0,0.14 -0.3,0.59 z"
           inkscape:connector-curvature="0"
           style="fill:#000000;stroke-width:0" /><path
           id="path1993"
           d="m 1325.5,366.36 h 4.7 c 0.9,0 1.4,0 1.4,1 0,0.55 -0.5,0.55 -1.4,0.55 h -4.3 c 1.8,7.08 2,8.08 2,8.38 0,0.84 -0.6,1.34 -1.4,1.34 -0.2,0 -1.6,-0.05 -2,-1.8 l -2,-7.92 h -4.7 c -1,0 -1.5,0 -1.5,-0.94 0,-0.61 0.5,-0.61 1.5,-0.61 h 4.3 c -3.6,-14.14 -3.8,-14.98 -3.8,-15.89 0,-2.68 1.9,-4.58 4.6,-4.58 5.1,0 7.9,7.27 7.9,7.68 0,0.5 -0.4,0.5 -0.6,0.5 -0.4,0 -0.4,-0.16 -0.7,-0.71 -2.1,-5.17 -4.8,-6.37 -6.5,-6.37 -1,0 -1.5,0.65 -1.5,2.3 0,1.18 0.1,1.54 0.3,2.39 z"
           inkscape:connector-curvature="0"
           style="fill:#000000;stroke-width:0" /><path
           id="path1995"
           d="m 1347.6,358.89 v 0.38 0.38 0.39 0.41 l -0.1,0.84 v 0.88 l -0.1,0.92 -0.1,0.95 -0.2,0.98 -0.1,1 -0.2,1.02 -0.3,1.04 -0.2,1.05 -0.3,1.06 -0.4,1.06 -0.4,1.07 -0.2,0.53 -0.2,0.53 -0.2,0.53 -0.3,0.53 c -3,6.13 -7.3,9.36 -7.8,9.36 -0.3,0 -0.5,-0.19 -0.5,-0.48 0,-0.16 0,-0.25 1,-1.16 4.9,-4.92 7.7,-12.84 7.7,-23.27 0,-8.51 -1.8,-17.28 -8,-23.56 -0.7,-0.59 -0.7,-0.7 -0.7,-0.84 0,-0.3 0.2,-0.5 0.5,-0.5 0.5,0 5,3.39 8,9.72 2.5,5.47 3.1,11 3.1,15.18 z"
           inkscape:connector-curvature="0"
           style="fill:#000000;stroke-width:0" /></g>    </g>
    <g
       id="g2185"
       transform="matrix(0.09398632,0,0,0.09398632,3124.4807,993.98403)">
      <g
         word-spacing="normal"
         letter-spacing="normal"
         font-size-adjust="none"
         font-stretch="normal"
         font-weight="normal"
         font-variant="normal"
         font-style="normal"
         stroke-miterlimit="10.433"
         xml:space="preserve"
         transform="matrix(2.5961237,2.5758176,2.5758176,-2.5961237,-1254.6077,-1556.3894)"
         id="g2183"
         style="font-style:normal;font-variant:normal;font-weight:normal;font-stretch:normal;letter-spacing:normal;word-spacing:normal;text-anchor:start;fill:none;fill-opacity:1;fill-rule:evenodd;stroke:#000000;stroke-linecap:butt;stroke-linejoin:miter;stroke-miterlimit:10.43299961;stroke-dasharray:none;stroke-dashoffset:0;stroke-opacity:1"><path
           id="path2119"
           d="m 958.68,394.98 -0.01,0.09 v 0.09 l -0.01,0.1 -0.02,0.08 -0.01,0.09 -0.03,0.09 -0.02,0.08 -0.03,0.08 -0.03,0.08 -0.04,0.08 -0.04,0.08 -0.05,0.07 -0.04,0.07 -0.06,0.07 -0.05,0.06 -0.06,0.06 -0.06,0.06 -0.06,0.06 -0.07,0.05 -0.07,0.05 -0.08,0.05 -0.07,0.04 -0.09,0.04 -0.08,0.04 -0.08,0.03 -0.09,0.03 -0.1,0.02 -0.09,0.02 -0.1,0.02 -0.1,0.01 h -0.1 l -0.11,0.01 c -1.36,0 -2.7,-1.3 -2.7,-2.64 0,-0.96 0.7,-1.8 1.9,-1.8 1.15,0 2.65,1.14 2.65,2.64 z"
           inkscape:connector-curvature="0"
           style="fill:#000000;stroke-width:0" /><path
           id="path2121"
           d="m 954.88,376.25 0.05,0.13 0.05,0.12 0.05,0.12 0.05,0.11 0.04,0.1 0.04,0.1 0.04,0.1 0.03,0.09 0.03,0.08 0.04,0.08 0.03,0.08 0.02,0.08 0.03,0.07 0.03,0.07 0.05,0.15 0.05,0.14 0.05,0.14 0.03,0.07 0.03,0.08 0.03,0.08 0.02,0.08 0.04,0.09 0.03,0.08 0.03,0.1 0.04,0.1 0.03,0.1 0.04,0.11 0.05,0.11 0.04,0.13 c 0.41,1 0.66,1.68 0.66,2.64 0,2.23 -1.6,4.08 -4.1,4.08 -4.67,0 -6.57,-7.22 -6.57,-7.68 0,-0.5 0.5,-0.5 0.61,-0.5 0.5,0 0.54,0.11 0.79,0.91 1.35,4.69 3.33,6.17 5.04,6.17 0.38,0 1.25,0 1.25,-1.59 0,-1.05 -0.37,-2.1 -0.57,-2.6 -0.39,-1.29 -2.64,-7.06 -3.43,-9.21 -0.49,-1.29 -1.15,-2.94 -1.15,-3.99 0,-2.33 1.69,-4.08 4.1,-4.08 4.67,0 6.51,7.22 6.51,7.67 0,0.5 -0.43,0.5 -0.59,0.5 -0.5,0 -0.5,-0.15 -0.75,-0.9 -0.89,-3.13 -2.53,-6.17 -5.08,-6.17 -0.84,0 -1.2,0.5 -1.2,1.64 0,1.25 0.31,1.95 1.45,4.98 z"
           inkscape:connector-curvature="0"
           style="fill:#000000;stroke-width:0" /><path
           id="path2123"
           d="m 979.76,394.53 -0.01,0.12 -0.01,0.13 -0.01,0.12 -0.02,0.13 -0.03,0.12 -0.04,0.12 -0.04,0.12 -0.04,0.12 -0.06,0.11 -0.05,0.12 -0.06,0.11 -0.07,0.1 -0.07,0.11 -0.08,0.1 -0.08,0.1 -0.09,0.09 -0.09,0.09 -0.1,0.09 -0.1,0.08 -0.1,0.08 -0.11,0.07 -0.11,0.07 -0.11,0.06 -0.12,0.05 -0.12,0.05 -0.12,0.05 -0.13,0.04 -0.13,0.03 -0.13,0.02 -0.14,0.02 -0.13,0.01 -0.14,0.01 c -1.69,0 -2.69,-1.39 -2.69,-2.64 0,-1.35 1.14,-2.64 2.64,-2.64 1.69,0 2.69,1.39 2.69,2.64 z"
           inkscape:connector-curvature="0"
           style="fill:#000000;stroke-width:0" /><path
           id="path2125"
           d="m 968.3,367.98 0.25,0.27 0.24,0.25 0.23,0.25 0.23,0.24 0.22,0.23 0.22,0.22 0.21,0.22 0.21,0.21 0.2,0.2 0.19,0.19 0.19,0.19 0.19,0.19 0.19,0.18 0.18,0.17 0.35,0.33 0.34,0.32 0.33,0.3 0.33,0.29 0.33,0.29 0.64,0.56 0.33,0.29 0.33,0.28 c 0,0.05 3.08,2.69 4.88,4.49 4.73,4.64 5.83,7.03 5.83,7.22 0,0.5 -0.46,0.5 -0.55,0.5 -0.34,0 -0.5,-0.1 -0.75,-0.55 -1.48,-2.39 -2.53,-3.19 -3.73,-3.19 -1.21,0 -1.8,0.75 -2.55,1.59 -0.94,1.16 -1.78,2.15 -3.44,2.15 -3.73,0 -6.01,-4.63 -6.01,-5.68 0,-0.25 0.14,-0.54 0.59,-0.54 0.45,0 0.55,0.25 0.64,0.54 0.95,2.3 3.84,2.35 4.24,2.35 1.04,0 2,-0.36 3.14,-0.75 2,-0.75 2.54,-0.75 3.84,-0.75 -1.8,-2.14 -5.98,-5.74 -6.92,-6.53 l -4.49,-4.18 c -3.39,-3.34 -5.14,-6.18 -5.14,-6.53 0,-0.5 0.5,-0.5 0.6,-0.5 0.4,0 0.5,0.1 0.79,0.64 1.16,1.75 2.64,3.1 4.24,3.1 1.15,0 1.65,-0.46 2.89,-1.89 0.86,-1.05 1.75,-1.85 3.19,-1.85 4.93,0 7.82,6.33 7.82,7.67 0,0.25 -0.2,0.5 -0.59,0.5 -0.45,0 -0.55,-0.29 -0.7,-0.65 -1.14,-3.24 -4.33,-4.17 -5.99,-4.17 -0.98,0 -1.89,0.29 -2.94,0.64 -1.68,0.64 -2.43,0.84 -3.48,0.84 -0.09,0 -0.89,0 -1.34,-0.14 z"
           inkscape:connector-curvature="0"
           style="fill:#000000;stroke-width:0" /><path
           id="path2127"
           d="m 1003.6,351.89 v 0.02 0.03 0.01 0.02 0.01 0.02 0.01 0.02 0.02 l -0.1,0.02 v 0.02 0.03 0.02 0.03 0.03 l -0.1,0.03 v 0.03 0.04 0.02 0.02 l -0.1,0.02 v 0.02 0.02 0.03 0.02 l -0.1,0.02 v 0.03 0.02 0.03 l -0.1,0.03 v 0.03 0.03 0.03 l -0.1,0.03 v 0.03 0.03 l -0.1,0.04 v 0.03 0.04 l -0.1,0.03 v 0.04 0.04 c -6.27,6.28 -7.86,15.69 -7.86,23.31 0,8.67 1.89,17.35 8.06,23.57 0.6,0.6 0.6,0.7 0.6,0.85 0,0.35 -0.2,0.49 -0.5,0.49 -0.5,0 -4.98,-3.38 -7.91,-9.7 -2.55,-5.49 -3.14,-11.02 -3.14,-15.21 0,-3.89 0.54,-9.9 3.28,-15.54 2.98,-6.13 7.27,-9.36 7.77,-9.36 0.3,0 0.5,0.14 0.5,0.5 z"
           inkscape:connector-curvature="0"
           style="fill:#000000;stroke-width:0" /><path
           id="path2129"
           d="m 1016.7,383.76 h 4.7 c 1,0 1.5,0 1.5,1 0,0.55 -0.5,0.55 -1.4,0.55 h -4.4 c 1.8,7.08 2,8.08 2,8.37 0,0.85 -0.6,1.35 -1.4,1.35 -0.2,0 -1.6,-0.05 -2,-1.8 l -1.9,-7.92 h -4.7 c -1,0 -1.5,0 -1.5,-0.94 0,-0.61 0.4,-0.61 1.4,-0.61 h 4.3 c -3.5,-14.14 -3.7,-14.98 -3.7,-15.89 0,-2.69 1.9,-4.58 4.5,-4.58 5.1,0 8,7.27 8,7.67 0,0.5 -0.4,0.5 -0.6,0.5 -0.5,0 -0.5,-0.15 -0.8,-0.7 -2.1,-5.17 -4.8,-6.37 -6.5,-6.37 -1,0 -1.5,0.65 -1.5,2.29 0,1.19 0.1,1.55 0.3,2.39 z"
           inkscape:connector-curvature="0"
           style="fill:#000000;stroke-width:0" /><path
           id="path2131"
           d="m 1042.4,367.51 v 0.36 0.35 0.68 0.66 l -0.1,0.64 v 0.62 l -0.1,0.59 -0.1,0.58 -0.1,0.56 -0.1,0.55 -0.2,0.52 -0.1,0.52 -0.2,0.5 -0.3,0.49 -0.2,0.48 -0.3,0.47 -0.1,0.23 -0.1,0.23 c -1.1,1.61 -3.3,3 -6.1,3 v -0.99 c 1.9,0 3.7,-1.14 4.4,-3.17 0.5,-1.87 0.5,-4.39 0.5,-7.42 0,-2.58 0,-5.16 -0.4,-7.34 -0.7,-3.17 -3.1,-3.94 -4.5,-3.94 v 0 c -1.6,0 -3.7,0.94 -4.4,3.8 -0.5,2.04 -0.5,4.9 -0.5,7.48 0,2.55 0,5.2 0.5,7.11 0.8,2.75 3,3.48 4.4,3.48 v 0.99 c -8.1,0 -8.1,-9.52 -8.1,-12.03 0,-2.5 0,-11.81 8.1,-11.81 8.1,0 8.1,9.31 8.1,11.81 z"
           inkscape:connector-curvature="0"
           style="fill:#000000;stroke-width:0" /><path
           id="path2133"
           d="m 1078.2,375.29 h 13.9 c 0.7,0 1.6,0 1.6,1 0,1 -0.9,1 -1.6,1 h -13.9 v 13.96 c 0,0.68 0,1.64 -1,1.64 -1,0 -1,-0.96 -1,-1.64 v -13.96 h -14 c -0.7,0 -1.6,0 -1.6,-1 0,-1 0.9,-1 1.6,-1 h 14 v -13.93 c 0,-0.71 0,-1.66 1,-1.66 1,0 1,0.95 1,1.66 z"
           inkscape:connector-curvature="0"
           style="fill:#000000;stroke-width:0" /><path
           id="path2135"
           d="m 1129.6,398.62 v 0.06 l -0.1,0.06 v 0.05 0.05 0.05 l -0.1,0.05 v 0.05 0.04 0.04 l -0.1,0.04 v 0.04 0.03 0.04 l -0.1,0.03 v 0.03 0.03 l -0.1,0.02 v 0.03 0.02 l -0.1,0.02 v 0.02 l -0.1,0.01 v 0.02 l -0.1,0.01 v 0.01 l -0.1,0.01 v 0.01 l -0.1,0.01 -0.1,0.01 v 0 h -0.1 v 0 h -0.1 c -0.8,0 -0.9,-0.25 -1.3,-0.89 l -0.3,-4.09 13.4,-26.91 h -26.8 l 13.4,26.91 0.3,4.09 -16.8,-33.78 c -0.3,-0.45 -0.3,-0.55 -0.3,-0.59 0,-0.41 0.3,-0.41 1.1,-0.41 h 34.6 c 0.8,0 1.1,0 1.1,0.41 0,0.04 0,0.14 -0.2,0.59 z"
           inkscape:connector-curvature="0"
           style="fill:#000000;stroke-width:0" /><path
           id="path2137"
           d="m 1159.4,383.76 h 4.7 c 1,0 1.5,0 1.5,1 0,0.55 -0.5,0.55 -1.4,0.55 h -4.4 c 1.8,7.08 2,8.08 2,8.37 0,0.85 -0.6,1.35 -1.4,1.35 -0.2,0 -1.6,-0.05 -2,-1.8 l -2,-7.92 h -4.6 c -1,0 -1.5,0 -1.5,-0.94 0,-0.61 0.4,-0.61 1.4,-0.61 h 4.3 c -3.5,-14.14 -3.7,-14.98 -3.7,-15.89 0,-2.69 1.9,-4.58 4.5,-4.58 5.1,0 8,7.27 8,7.67 0,0.5 -0.4,0.5 -0.6,0.5 -0.5,0 -0.5,-0.15 -0.8,-0.7 -2.1,-5.17 -4.8,-6.37 -6.5,-6.37 -1,0 -1.5,0.65 -1.5,2.29 0,1.19 0.1,1.55 0.3,2.39 z"
           inkscape:connector-curvature="0"
           style="fill:#000000;stroke-width:0" /><path
           id="path2139"
           d="m 1181.5,376.29 v 0.37 0.39 0.39 0.41 l -0.1,0.84 v 0.88 l -0.1,0.92 -0.1,0.95 -0.1,0.98 -0.2,1 -0.2,1.02 -0.2,1.03 -0.3,1.06 -0.3,1.05 -0.4,1.07 -0.3,1.07 -0.3,0.53 -0.2,0.53 -0.2,0.53 -0.3,0.53 c -3,6.12 -7.2,9.36 -7.7,9.36 -0.3,0 -0.5,-0.19 -0.5,-0.49 0,-0.15 0,-0.25 0.9,-1.15 4.9,-4.92 7.7,-12.85 7.7,-23.27 0,-8.51 -1.8,-17.28 -8,-23.56 -0.6,-0.59 -0.6,-0.7 -0.6,-0.84 0,-0.3 0.2,-0.5 0.5,-0.5 0.5,0 4.9,3.39 7.9,9.72 2.5,5.46 3.1,11 3.1,15.18 z"
           inkscape:connector-curvature="0"
           style="fill:#000000;stroke-width:0" /><polyline
           id="polyline2141"
           points="945,342 1187,342 1187,344.04 945,344.04 "
           style="fill:#000000;fill-rule:nonzero;stroke-width:0" /><path
           id="path2143"
           d="m 971.24,326.61 v 0.12 l -0.01,0.13 -0.02,0.12 -0.02,0.13 -0.03,0.12 -0.03,0.12 -0.04,0.12 -0.05,0.12 -0.05,0.11 -0.06,0.12 -0.06,0.11 -0.07,0.11 -0.07,0.1 -0.08,0.1 -0.08,0.1 -0.09,0.09 -0.09,0.09 -0.09,0.09 -0.1,0.08 -0.1,0.08 -0.11,0.07 -0.11,0.07 -0.12,0.06 -0.11,0.06 -0.12,0.05 -0.13,0.04 -0.12,0.04 -0.13,0.03 -0.14,0.03 -0.13,0.02 -0.14,0.01 h -0.14 c -1.69,0 -2.69,-1.39 -2.69,-2.64 0,-1.34 1.14,-2.64 2.64,-2.64 1.69,0 2.69,1.39 2.69,2.64 z"
           inkscape:connector-curvature="0"
           style="fill:#000000;stroke-width:0" /><path
           id="path2145"
           d="m 959.78,300.06 0.25,0.27 0.24,0.26 0.24,0.24 0.22,0.24 0.23,0.23 0.21,0.23 0.21,0.21 0.21,0.21 0.2,0.2 0.2,0.2 0.19,0.19 0.19,0.18 0.18,0.18 0.18,0.17 0.35,0.33 0.35,0.32 0.33,0.3 0.33,0.3 0.32,0.28 0.65,0.56 0.33,0.29 0.33,0.28 c 0,0.05 3.08,2.69 4.87,4.49 4.74,4.64 5.83,7.03 5.83,7.22 0,0.5 -0.45,0.5 -0.54,0.5 -0.35,0 -0.5,-0.1 -0.76,-0.55 -1.48,-2.39 -2.53,-3.19 -3.73,-3.19 -1.2,0 -1.8,0.75 -2.55,1.6 -0.93,1.15 -1.78,2.14 -3.43,2.14 -3.74,0 -6.02,-4.63 -6.02,-5.67 0,-0.25 0.14,-0.55 0.59,-0.55 0.46,0 0.55,0.25 0.64,0.55 0.96,2.29 3.85,2.34 4.24,2.34 1.05,0 2,-0.36 3.14,-0.75 2,-0.75 2.55,-0.75 3.84,-0.75 -1.79,-2.14 -5.98,-5.73 -6.92,-6.53 l -4.48,-4.17 c -3.39,-3.35 -5.14,-6.19 -5.14,-6.53 0,-0.5 0.5,-0.5 0.59,-0.5 0.41,0 0.5,0.09 0.8,0.64 1.15,1.75 2.64,3.09 4.23,3.09 1.16,0 1.66,-0.45 2.89,-1.89 0.86,-1.05 1.75,-1.84 3.19,-1.84 4.94,0 7.83,6.32 7.83,7.67 0,0.25 -0.21,0.5 -0.6,0.5 -0.45,0 -0.54,-0.3 -0.7,-0.66 -1.14,-3.23 -4.33,-4.17 -5.98,-4.17 -0.99,0 -1.89,0.3 -2.94,0.64 -1.69,0.64 -2.44,0.84 -3.49,0.84 -0.09,0 -0.89,0 -1.34,-0.14 z"
           inkscape:connector-curvature="0"
           style="fill:#000000;stroke-width:0" /><path
           id="path2147"
           d="m 994.96,283.97 v 0.03 0.02 l -0.01,0.02 v 0.01 0.01 l -0.01,0.02 v 0.02 l -0.01,0.01 -0.01,0.02 -0.01,0.02 -0.01,0.03 -0.01,0.02 -0.02,0.02 -0.02,0.03 -0.02,0.03 -0.02,0.03 -0.03,0.04 -0.03,0.03 -0.01,0.02 -0.02,0.02 -0.02,0.02 -0.02,0.02 -0.02,0.03 -0.02,0.02 -0.02,0.02 -0.02,0.03 -0.02,0.02 -0.03,0.03 -0.02,0.02 -0.03,0.03 -0.02,0.03 -0.03,0.03 -0.03,0.03 -0.03,0.03 -0.03,0.03 -0.03,0.03 -0.03,0.04 -0.04,0.03 -0.03,0.04 -0.04,0.04 -0.04,0.03 -0.04,0.04 c -6.21,6.28 -7.81,15.69 -7.81,23.32 0,8.67 1.89,17.34 8.02,23.56 0.64,0.61 0.64,0.7 0.64,0.86 0,0.34 -0.19,0.48 -0.49,0.48 -0.5,0 -4.98,-3.37 -7.92,-9.7 -2.55,-5.49 -3.14,-11.02 -3.14,-15.2 0,-3.9 0.55,-9.91 3.28,-15.55 2.99,-6.13 7.28,-9.36 7.78,-9.36 0.3,0 0.49,0.14 0.49,0.5 z"
           inkscape:connector-curvature="0"
           style="fill:#000000;stroke-width:0" /><path
           id="path2149"
           d="m 1008,315.84 h 4.7 c 1,0 1.5,0 1.5,1 0,0.55 -0.5,0.55 -1.4,0.55 h -4.3 c 1.7,7.08 2,8.08 2,8.38 0,0.84 -0.6,1.34 -1.5,1.34 -0.1,0 -1.5,-0.05 -2,-1.8 l -1.9,-7.92 h -4.7 c -0.97,0 -1.47,0 -1.47,-0.94 0,-0.61 0.41,-0.61 1.37,-0.61 h 4.4 c -3.6,-14.14 -3.8,-14.98 -3.8,-15.89 0,-2.68 1.9,-4.57 4.6,-4.57 5.1,0 7.9,7.26 7.9,7.67 0,0.5 -0.4,0.5 -0.6,0.5 -0.4,0 -0.5,-0.16 -0.7,-0.71 -2.1,-5.17 -4.8,-6.37 -6.5,-6.37 -1,0 -1.5,0.65 -1.5,2.3 0,1.18 0.1,1.54 0.3,2.39 z"
           inkscape:connector-curvature="0"
           style="fill:#000000;stroke-width:0" /><path
           id="path2151"
           d="m 1033.8,299.59 v 0.36 0.35 0.68 l -0.1,0.66 v 0.64 l -0.1,0.62 v 0.59 l -0.1,0.58 -0.1,0.56 -0.2,0.55 -0.1,0.53 -0.2,0.51 -0.2,0.5 -0.2,0.49 -0.2,0.48 -0.3,0.47 -0.1,0.23 -0.2,0.23 c -1.1,1.61 -3.2,3 -6,3 v -0.98 c 1.9,0 3.7,-1.14 4.3,-3.18 0.6,-1.87 0.6,-4.39 0.6,-7.42 0,-2.58 0,-5.15 -0.4,-7.34 -0.7,-3.17 -3.1,-3.94 -4.5,-3.94 v 0 c -1.6,0 -3.7,0.94 -4.4,3.8 -0.5,2.05 -0.5,4.9 -0.5,7.48 0,2.55 0,5.21 0.5,7.11 0.7,2.75 3,3.49 4.4,3.49 v 0.98 c -8.1,0 -8.1,-9.51 -8.1,-12.03 0,-2.5 0,-11.81 8.1,-11.81 8.1,0 8.1,9.31 8.1,11.81 z"
           inkscape:connector-curvature="0"
           style="fill:#000000;stroke-width:0" /><path
           id="path2153"
           d="m 1069.7,307.38 h 13.9 c 0.6,0 1.6,0 1.6,1 0,1 -1,1 -1.6,1 h -13.9 v 13.95 c 0,0.69 0,1.64 -1,1.64 -1,0 -1,-0.95 -1,-1.64 v -13.95 h -14 c -0.7,0 -1.6,0 -1.6,-1 0,-1 0.9,-1 1.6,-1 h 14 v -13.94 c 0,-0.71 0,-1.66 1,-1.66 1,0 1,0.95 1,1.66 z"
           inkscape:connector-curvature="0"
           style="fill:#000000;stroke-width:0" /><path
           id="path2155"
           d="m 1121.1,330.7 v 0.06 l -0.1,0.06 v 0.05 0.06 l -0.1,0.05 v 0.04 0.05 0.04 l -0.1,0.04 v 0.04 0.04 0.04 l -0.1,0.03 v 0.03 0.03 l -0.1,0.03 v 0.02 0.03 l -0.1,0.02 v 0.02 0.02 l -0.1,0.02 v 0.01 l -0.1,0.01 v 0.02 l -0.1,0.01 v 0.01 h -0.1 l -0.1,0.01 v 0 h -0.1 -0.1 v 0 c -0.9,0 -0.9,-0.25 -1.3,-0.89 l -0.3,-4.09 13.4,-26.91 h -26.8 l 13.4,26.91 0.3,4.09 -16.8,-33.78 c -0.3,-0.45 -0.3,-0.54 -0.3,-0.59 0,-0.41 0.3,-0.41 1.1,-0.41 h 34.6 c 0.8,0 1.1,0 1.1,0.41 0,0.05 0,0.14 -0.3,0.59 z"
           inkscape:connector-curvature="0"
           style="fill:#000000;stroke-width:0" /><path
           id="path2157"
           d="m 1150.9,315.84 h 4.7 c 0.9,0 1.4,0 1.4,1 0,0.55 -0.5,0.55 -1.4,0.55 h -4.4 c 1.9,7.08 2.1,8.08 2.1,8.38 0,0.84 -0.6,1.34 -1.4,1.34 -0.2,0 -1.6,-0.05 -2,-1.8 l -2,-7.92 h -4.7 c -1,0 -1.5,0 -1.5,-0.94 0,-0.61 0.4,-0.61 1.4,-0.61 h 4.4 c -3.6,-14.14 -3.8,-14.98 -3.8,-15.89 0,-2.68 1.9,-4.57 4.6,-4.57 5.1,0 7.9,7.26 7.9,7.67 0,0.5 -0.4,0.5 -0.6,0.5 -0.4,0 -0.5,-0.16 -0.7,-0.71 -2.1,-5.17 -4.8,-6.37 -6.5,-6.37 -1,0 -1.5,0.65 -1.5,2.3 0,1.18 0.1,1.54 0.3,2.39 z"
           inkscape:connector-curvature="0"
           style="fill:#000000;stroke-width:0" /><path
           id="path2159"
           d="m 1173,308.38 v 0.37 0.38 0.39 0.41 l -0.1,0.84 v 0.88 l -0.1,0.92 -0.1,0.95 -0.2,0.98 -0.1,1 -0.2,1.02 -0.3,1.04 -0.2,1.05 -0.3,1.06 -0.4,1.06 -0.4,1.07 -0.2,0.53 -0.2,0.53 -0.2,0.53 -0.3,0.53 c -3,6.13 -7.3,9.36 -7.8,9.36 -0.3,0 -0.5,-0.19 -0.5,-0.48 0,-0.16 0,-0.25 1,-1.16 4.9,-4.92 7.7,-12.84 7.7,-23.26 0,-8.52 -1.8,-17.29 -8,-23.57 -0.7,-0.59 -0.7,-0.7 -0.7,-0.84 0,-0.3 0.2,-0.5 0.5,-0.5 0.5,0 5,3.39 8,9.72 2.5,5.47 3.1,11 3.1,15.19 z"
           inkscape:connector-curvature="0"
           style="fill:#000000;stroke-width:0" /><path
           id="path2161"
           d="m 1213.2,342.57 v 0.14 l -0.1,0.13 v 0.13 0.13 0.13 l -0.1,0.13 v 0.12 0.12 l -0.1,0.12 -0.1,0.11 v 0.11 l -0.1,0.11 -0.1,0.1 v 0.1 l -0.1,0.1 -0.1,0.09 -0.1,0.09 -0.1,0.08 -0.1,0.08 -0.1,0.07 -0.1,0.07 -0.1,0.07 -0.1,0.05 -0.2,0.06 -0.1,0.04 -0.1,0.05 -0.1,0.03 -0.1,0.03 -0.2,0.02 -0.1,0.02 -0.1,0.01 h -0.2 c -1.4,0 -2.6,-1.18 -2.6,-2.64 0,-1.43 1.2,-2.64 2.6,-2.64 1.5,0 2.7,1.21 2.7,2.64 z"
           inkscape:connector-curvature="0"
           style="fill:#000000;stroke-width:0" /><path
           id="path2163"
           d="m 1242.7,364.15 v 0 0.01 0.01 0.01 0.01 0.01 0.02 0.02 0.02 0.02 0.02 0.02 0.03 0.02 0.02 0.03 l -0.1,0.02 v 0.03 0.02 0.03 0.02 0.01 l -0.1,0.01 v 0.01 0.01 0.01 0.01 0.01 0.01 l -0.1,0.01 v 0.01 0.01 0 0.01 l -0.1,0.01 v 0 0.01 0 0.01 h -0.1 v 0 0.01 h -0.1 v 0 0 c -1.2,0 -4.8,-0.41 -6.1,-0.5 -0.4,-0.05 -0.9,-0.09 -0.9,-1 0,-0.59 0.4,-0.59 1.2,-0.59 2.4,0 2.5,-0.35 2.5,-0.85 l -0.2,-1 -7.2,-28.7 c -0.2,-0.69 -0.2,-0.8 -0.2,-1.1 0,-1.14 1,-1.39 1.4,-1.39 0.7,0 1.4,0.46 1.7,1.05 0.3,0.45 2.5,9.66 2.8,10.91 1.7,-0.14 5.8,-0.94 5.8,-4.24 0,-0.34 0,-0.54 -0.2,-1.04 -0.1,-0.6 -0.2,-1.19 -0.2,-1.74 0,-2.95 2,-4.94 4.6,-4.94 1.5,0 2.8,0.8 4,2.64 1.2,2.19 1.7,4.94 1.7,5.04 0,0.5 -0.4,0.5 -0.6,0.5 -0.4,0 -0.5,-0.21 -0.6,-0.91 -1,-3.63 -2.2,-6.17 -4.4,-6.17 -0.9,0 -1.6,0.54 -1.6,2.34 0,0.85 0.2,1.99 0.4,2.78 0.2,0.86 0.2,1.05 0.2,1.55 0,3.25 -3.1,4.69 -7.4,5.23 1.6,0.91 3.2,2.5 4.3,3.69 2.4,2.64 4.7,4.78 7.2,4.78 0.3,0 0.3,0 0.4,-0.04 0.6,-0.1 0.7,-0.1 1.1,-0.39 0.1,-0.07 0.1,-0.11 0.1,-0.21 -2.3,-0.15 -2.8,-2.09 -2.8,-2.69 0,-0.79 0.6,-1.75 1.9,-1.75 1.3,0 2.8,1.1 2.8,3.04 0,1.5 -1.2,3.14 -3.4,3.14 -1.4,0 -3.7,-0.39 -7.3,-4.38 -1.7,-1.89 -3.7,-3.89 -5.5,-4.64 z"
           inkscape:connector-curvature="0"
           style="fill:#000000;stroke-width:0" /><path
           id="path2165"
           d="m 1287.4,341.57 h 14 c 0.6,0 1.6,0 1.6,1 0,1 -1,1 -1.6,1 h -14 v 13.96 c 0,0.68 0,1.64 -1,1.64 -0.9,0 -0.9,-0.96 -0.9,-1.64 v -13.96 h -14 c -0.7,0 -1.6,0 -1.6,-1 0,-1 0.9,-1 1.6,-1 h 14 v -13.93 c 0,-0.71 0,-1.66 0.9,-1.66 1,0 1,0.95 1,1.66 z"
           inkscape:connector-curvature="0"
           style="fill:#000000;stroke-width:0" /><path
           id="path2167"
           d="m 1323.5,334.26 0.2,0.27 0.3,0.25 0.2,0.25 0.3,0.24 0.2,0.23 0.2,0.23 0.2,0.21 0.2,0.21 0.2,0.2 0.2,0.2 0.2,0.19 0.2,0.18 0.2,0.18 0.1,0.17 0.4,0.33 0.3,0.32 0.4,0.3 0.3,0.3 0.3,0.28 0.7,0.56 0.3,0.29 0.3,0.28 c 0,0.05 3.1,2.69 4.9,4.49 4.7,4.64 5.8,7.03 5.8,7.22 0,0.5 -0.4,0.5 -0.5,0.5 -0.4,0 -0.5,-0.1 -0.8,-0.55 -1.4,-2.39 -2.5,-3.19 -3.7,-3.19 -1.2,0 -1.8,0.75 -2.5,1.6 -1,1.15 -1.8,2.14 -3.5,2.14 -3.7,0 -6,-4.63 -6,-5.68 0,-0.25 0.1,-0.54 0.6,-0.54 0.5,0 0.5,0.25 0.6,0.54 1,2.3 3.9,2.35 4.3,2.35 1,0 2,-0.36 3.1,-0.75 2,-0.75 2.6,-0.75 3.9,-0.75 -1.8,-2.14 -6,-5.74 -7,-6.53 l -4.4,-4.17 c -3.4,-3.35 -5.2,-6.19 -5.2,-6.54 0,-0.5 0.5,-0.5 0.6,-0.5 0.4,0 0.5,0.1 0.8,0.64 1.2,1.75 2.6,3.1 4.2,3.1 1.2,0 1.7,-0.45 2.9,-1.89 0.9,-1.05 1.8,-1.85 3.2,-1.85 5,0 7.8,6.33 7.8,7.68 0,0.25 -0.2,0.5 -0.6,0.5 -0.4,0 -0.5,-0.3 -0.7,-0.66 -1.1,-3.23 -4.3,-4.17 -5.9,-4.17 -1,0 -1.9,0.29 -3,0.64 -1.7,0.64 -2.4,0.84 -3.5,0.84 0,0 -0.9,0 -1.3,-0.14 z"
           inkscape:connector-curvature="0"
           style="fill:#000000;stroke-width:0" /><path
           id="path2169"
           d="m 1358.7,318.17 v 0.02 0.03 0.01 0.02 0.01 0.02 0.02 l -0.1,0.01 v 0.02 0.02 0.03 0.02 0.02 0.03 l -0.1,0.03 v 0.03 0.04 0.03 l -0.1,0.02 v 0.02 0.02 0.02 0.02 0.03 l -0.1,0.02 v 0.02 0.03 0.03 l -0.1,0.02 v 0.03 0.03 0.03 l -0.1,0.03 v 0.03 0.03 l -0.1,0.03 v 0.04 0.03 l -0.1,0.04 v 0.03 0.04 l -0.1,0.04 c -6.2,6.28 -7.8,15.69 -7.8,23.31 0,8.68 1.9,17.35 8,23.57 0.7,0.61 0.7,0.7 0.7,0.86 0,0.34 -0.2,0.48 -0.5,0.48 -0.5,0 -5,-3.37 -7.9,-9.7 -2.6,-5.49 -3.2,-11.02 -3.2,-15.21 0,-3.89 0.6,-9.9 3.3,-15.54 3,-6.13 7.3,-9.36 7.8,-9.36 0.3,0 0.5,0.14 0.5,0.5 z"
           inkscape:connector-curvature="0"
           style="fill:#000000;stroke-width:0" /><path
           id="path2171"
           d="m 1371.8,350.04 h 4.7 c 0.9,0 1.4,0 1.4,1 0,0.55 -0.5,0.55 -1.3,0.55 h -4.4 c 1.8,7.08 2,8.08 2,8.37 0,0.85 -0.6,1.35 -1.4,1.35 -0.2,0 -1.6,-0.05 -2,-1.8 l -2,-7.92 h -4.7 c -1,0 -1.5,0 -1.5,-0.94 0,-0.61 0.5,-0.61 1.5,-0.61 h 4.3 c -3.6,-14.14 -3.8,-14.98 -3.8,-15.89 0,-2.69 1.9,-4.58 4.6,-4.58 5.1,0 7.9,7.27 7.9,7.68 0,0.5 -0.3,0.5 -0.5,0.5 -0.5,0 -0.5,-0.16 -0.8,-0.71 -2.1,-5.17 -4.8,-6.37 -6.5,-6.37 -1,0 -1.5,0.65 -1.5,2.29 0,1.19 0.1,1.55 0.3,2.4 z"
           inkscape:connector-curvature="0"
           style="fill:#000000;stroke-width:0" /><path
           id="path2173"
           d="m 1397.5,333.79 v 0.71 0.68 l -0.1,0.66 v 0.64 l -0.1,0.62 v 0.59 l -0.1,0.58 -0.1,0.56 -0.2,0.55 -0.1,0.53 -0.2,0.51 -0.2,0.5 -0.2,0.49 -0.2,0.48 -0.3,0.47 -0.1,0.23 -0.2,0.23 c -1,1.61 -3.2,3 -6,3 v -0.98 c 1.9,0 3.7,-1.14 4.3,-3.18 0.6,-1.87 0.6,-4.39 0.6,-7.42 0,-2.58 0,-5.15 -0.4,-7.34 -0.7,-3.17 -3.1,-3.94 -4.5,-3.94 v 0 c -1.6,0 -3.7,0.94 -4.4,3.8 -0.5,2.04 -0.5,4.9 -0.5,7.48 0,2.55 0,5.21 0.5,7.11 0.8,2.75 3,3.49 4.4,3.49 v 0.98 c -8.1,0 -8.1,-9.52 -8.1,-12.03 0,-2.5 0,-11.81 8.1,-11.81 8.1,0 8.1,9.31 8.1,11.81 z"
           inkscape:connector-curvature="0"
           style="fill:#000000;stroke-width:0" /><path
           id="path2175"
           d="m 1433.4,341.57 h 13.9 c 0.7,0 1.6,0 1.6,1 0,1 -0.9,1 -1.6,1 h -13.9 v 13.96 c 0,0.68 0,1.64 -1,1.64 -1,0 -1,-0.96 -1,-1.64 v -13.96 h -14 c -0.7,0 -1.6,0 -1.6,-1 0,-1 0.9,-1 1.6,-1 h 14 v -13.93 c 0,-0.71 0,-1.66 1,-1.66 1,0 1,0.95 1,1.66 z"
           inkscape:connector-curvature="0"
           style="fill:#000000;stroke-width:0" /><path
           id="path2177"
           d="m 1484.8,364.9 v 0.06 l -0.1,0.06 v 0.05 0.05 0.05 l -0.1,0.05 v 0.05 0.04 0.04 l -0.1,0.04 v 0.04 0.04 0.03 l -0.1,0.03 v 0.03 0.03 l -0.1,0.02 v 0.03 0.02 l -0.1,0.02 v 0.02 l -0.1,0.02 v 0.01 l -0.1,0.01 v 0.02 l -0.1,0.01 v 0 l -0.1,0.01 -0.1,0.01 v 0 h -0.1 v 0 h -0.1 c -0.8,0 -0.9,-0.25 -1.3,-0.89 l -0.3,-4.09 13.4,-26.91 h -26.8 l 13.4,26.91 0.3,4.09 -16.8,-33.78 c -0.3,-0.45 -0.3,-0.55 -0.3,-0.59 0,-0.41 0.3,-0.41 1.1,-0.41 h 34.6 c 0.8,0 1.1,0 1.1,0.41 0,0.04 0,0.14 -0.2,0.59 z"
           inkscape:connector-curvature="0"
           style="fill:#000000;stroke-width:0" /><path
           id="path2179"
           d="m 1514.6,350.04 h 4.7 c 0.9,0 1.5,0 1.5,1 0,0.55 -0.6,0.55 -1.4,0.55 h -4.4 c 1.8,7.08 2,8.08 2,8.37 0,0.85 -0.6,1.35 -1.4,1.35 -0.2,0 -1.6,-0.05 -2,-1.8 l -2,-7.92 h -4.6 c -1,0 -1.5,0 -1.5,-0.94 0,-0.61 0.4,-0.61 1.4,-0.61 h 4.3 c -3.5,-14.14 -3.7,-14.98 -3.7,-15.89 0,-2.69 1.8,-4.58 4.5,-4.58 5.1,0 8,7.27 8,7.68 0,0.5 -0.4,0.5 -0.6,0.5 -0.5,0 -0.5,-0.16 -0.8,-0.71 -2.1,-5.17 -4.8,-6.37 -6.5,-6.37 -1,0 -1.5,0.65 -1.5,2.29 0,1.19 0.1,1.55 0.3,2.4 z"
           inkscape:connector-curvature="0"
           style="fill:#000000;stroke-width:0" /><path
           id="path2181"
           d="m 1536.7,342.57 v 0.37 0.39 0.39 0.41 l -0.1,0.84 v 0.88 l -0.1,0.92 -0.1,0.95 -0.1,0.98 -0.2,1 -0.2,1.02 -0.2,1.04 -0.3,1.05 -0.3,1.06 -0.4,1.06 -0.3,1.07 -0.3,0.53 -0.2,0.53 -0.2,0.53 -0.3,0.53 c -3,6.13 -7.2,9.36 -7.7,9.36 -0.3,0 -0.5,-0.19 -0.5,-0.48 0,-0.16 0,-0.25 0.9,-1.16 4.9,-4.92 7.7,-12.84 7.7,-23.27 0,-8.51 -1.8,-17.28 -8,-23.56 -0.6,-0.59 -0.6,-0.7 -0.6,-0.84 0,-0.3 0.2,-0.5 0.5,-0.5 0.5,0 4.9,3.39 7.9,9.72 2.5,5.47 3.1,11 3.1,15.18 z"
           inkscape:connector-curvature="0"
           style="fill:#000000;stroke-width:0" /></g>    </g>
    <path
       style="opacity:1;vector-effect:none;fill:none;fill-opacity:1;stroke:#000000;stroke-width:3.40157461;stroke-linecap:butt;stroke-linejoin:miter;stroke-miterlimit:4;stroke-dasharray:none;stroke-dashoffset:0;stroke-opacity:1"
       d="m 3320.95,951.46687 228.2012,228.20123"
       id="path2224"
       inkscape:connector-curvature="0" />
  </g>
</svg>
